<svg xmlns="http://www.w3.org/2000/svg" viewBox="0 0 270.09 67.92"><defs/><defs><clipPath id="clip-path"><path fill="none" d="M0 0h270.09v67.92H0z"/></clipPath><style>.cls-3 {
		fill: #004b9b;
	}
	.cls-4 {
		fill: #221815;
	}
</style></defs><g clip-path="url(#clip-path)"><path d="M71 12.35H50.8c-1.29-1.69-4-3.24-7.56-4.63H71V0H0v7.72h7.74c18.25 0 31.62 5.17 39 9.92l-5.39 2.18C33 15.39 20.5 12.35 7.72 12.35H0v7.72h7.72a73 73 0 0123.58 3.82l-8.53 3.45a4.47 4.47 0 00-2.7 3.79v8.3a4.52 4.52 0 002.7 3.79L50.94 54.6v-8.32l-10.79-4.36 8.08-3.27a4.5 4.5 0 002.71-3.79v-7.61a4.93 4.93 0 01-2.71 3.09l-18.38 7.42-6.15-2.48 24.53-9.92a4.5 4.5 0 002.71-3.79v-1.5H71zM20.07 45.14v7.6a4.5 4.5 0 002.7 3.8l28.17 11.38V59.6L22.77 48.22a4.89 4.89 0 01-2.7-3.08" class="cls-3"/><path d="M116 43.48h9.55V20.55H110v-2.21h18.82v-6.65H110v-4h-6.64v4H84.55v6.65h18.82v2.21h-15.5v22.93h9.56A32.54 32.54 0 0184 53.21l3 6.89a41.38 41.38 0 0016.33-14.38v14.1H110v-14.1a41.38 41.38 0 0016.34 14.38l3-6.89A32.54 32.54 0 01116 43.48m2.91-5.54H110v-3.17h8.86zm0-8.71H110v-3.14h8.86zm-24.4-3.14h8.86v3.15h-8.86zm0 8.68h8.86v3.17h-8.86zM261.45 17a44.53 44.53 0 003.3-7.28l-6.25-2.26a53.54 53.54 0 01-4.56 9.54h-5.7l3.85-1.48L249 7.46l-6.21 2.39 2.75 7.15h-8.79l3.85-1.48-3.1-8.06-6.21 2.39 2.76 7.15h-8.25v15.59h6.65v-8.94h31v8.94h6.64V17z"/><path d="M261.22 32.59v-6.65h-26.56v6.65h16.91a47.29 47.29 0 01-6.24 3.87v3.07H225.8v6.65h19.53v7h-6.86l1.66 6.65h5.19a6.65 6.65 0 006.68-6.65v-7h18.11v-6.65H252a49.62 49.62 0 009.19-6.94" class="cls-4"/><path d="M205.1 27h17.76v-7.2h-18V7.72h-7.14V19.8h-18V27h17.75a31.58 31.58 0 01-18.38 26.18l4.29 7a42.9 42.9 0 0017.85-21.89 43 43 0 0017.96 21.81l4.29-7A31.59 31.59 0 01205.1 27M176.78 18.33v-6.64h-24.71c.35-1.29.67-2.6.92-4h-6.37c-1.43 6.67-4.1 11.43-7.67 16.65l4.93 4.4c.59-.88 1.16-1.75 1.7-2.63-.11 2.3-.24 4.6-.37 6.88h-2.76v6.65h2.28a155 155 0 01-2 15.47l5.88.78c.21-1.22.4-2.41.57-3.61h18.06c-.06.49-.09 1-.15 1.49h-6l1.36 6H167a5.93 5.93 0 006-5.11c.1-.78.18-1.6.27-2.41H176v-6.59h-2.17c.15-2 .29-4 .4-6h2.51V33h-2.24q.18-6 .12-12.46h-26c.36-.73.71-1.47 1-2.22zm-26.21 21.33h6c-.14 2-.3 4-.5 6h-6c.21-2 .39-4 .54-6m17.28 6H162c.19-2 .34-4 .47-6h5.73q-.14 3-.36 6m.58-12.66h-5.6c.07-1.94.14-3.86.17-5.8h5.47c0 1.94 0 3.87-.05 5.8m-11.3-5.8c0 1.94-.11 3.87-.19 5.8H151c.11-1.91.21-3.83.31-5.8z"/><path d="M131.433 13.624l4.424-4.965 7.003 6.24-4.423 4.965zM131.433 29.288l4.424-4.965 7.003 6.24-4.424 4.965zM137.16 38.92a66.05 66.05 0 01-5.72 17l5.69 4.13a60.16 60.16 0 005.85-18z" class="cls-4"/></g></svg>