<svg width="91" height="34" viewBox="0 0 91 34" fill="none" xmlns="http://www.w3.org/2000/svg">
    <path d="M2.29999 17.7807C3.59999 17.7807 4.60001 16.7807 4.60001 15.4807C4.60001 14.1807 3.59999 13.1807 2.29999 13.1807C0.999988 13.1807 0 14.1807 0 15.4807C0 16.6807 1.09999 17.7807 2.29999 17.7807Z" fill="#747678"/>
    <path d="M2.29999 30.3808C3.59999 30.3808 4.60001 29.3808 4.60001 28.0808C4.60001 26.7808 3.59999 25.7808 2.29999 25.7808C0.999988 25.7808 0 26.7808 0 28.0808C0 29.3808 1.09999 30.3808 2.29999 30.3808Z" fill="#747678"/>
    <path d="M15 17.7807C16.3 17.7807 17.3 16.7807 17.3 15.4807C17.3 14.1807 16.3 13.1807 15 13.1807C13.7 13.1807 12.7 14.1807 12.7 15.4807C12.7 16.6807 13.7 17.7807 15 17.7807Z" fill="#747678"/>
    <path d="M15 30.3808C16.3 30.3808 17.3 29.3808 17.3 28.0808C17.3 26.7808 16.3 25.7808 15 25.7808C13.7 25.7808 12.7 26.7808 12.7 28.0808C12.7 29.3808 13.7 30.3808 15 30.3808Z" fill="#747678"/>
    <path d="M27.6 17.7807C28.9 17.7807 29.9 16.7807 29.9 15.4807C29.9 14.1807 28.9 13.1807 27.6 13.1807C26.3 13.1807 25.3 14.1807 25.3 15.4807C25.3 16.6807 26.3 17.7807 27.6 17.7807Z" fill="#747678"/>
    <path d="M2.29999 5.08072C3.59999 5.08072 4.60001 4.08072 4.60001 2.78072C4.60001 1.48072 3.59999 0.480713 2.29999 0.480713C0.999988 0.480713 0 1.48072 0 2.78072C0 4.08072 1.09999 5.08072 2.29999 5.08072Z" fill="#747678"/>
    <path d="M15 5.08072C16.3 5.08072 17.3 4.08072 17.3 2.78072C17.3 1.48072 16.3 0.480713 15 0.480713C13.7 0.480713 12.7 1.48072 12.7 2.78072C12.7 4.08072 13.7 5.08072 15 5.08072Z" fill="#747678"/>
    <path d="M27.6 5.08072C28.9 5.08072 29.9 4.08072 29.9 2.78072C29.9 1.48072 28.9 0.480713 27.6 0.480713C26.3 0.480713 25.3 1.48072 25.3 2.78072C25.3 4.08072 26.3 5.08072 27.6 5.08072Z" fill="#747678"/>
    <path d="M27.6 30.3808C28.9 30.3808 29.9 29.3808 29.9 28.0808C29.9 26.7808 28.9 25.7808 27.6 25.7808C26.3 25.7808 25.3 26.7808 25.3 28.0808C25.3 29.3808 26.3 30.3808 27.6 30.3808Z" fill="#747678"/>
    <path d="M40.2 17.7807C41.5 17.7807 42.5 16.7807 42.5 15.4807C42.5 14.1807 41.5 13.1807 40.2 13.1807C38.9 13.1807 37.9 14.1807 37.9 15.4807C37.9 16.6807 39 17.7807 40.2 17.7807Z" fill="#747678"/>
    <path d="M40.2 30.3808C41.5 30.3808 42.5 29.3808 42.5 28.0808C42.5 26.7808 41.5 25.7808 40.2 25.7808C38.9 25.7808 37.9 26.7808 37.9 28.0808C37.9 29.3808 39 30.3808 40.2 30.3808Z" fill="#747678"/>
    <path d="M40.2 5.08072C41.5 5.08072 42.5 4.08072 42.5 2.78072C42.5 1.48072 41.5 0.480713 40.2 0.480713C38.9 0.480713 37.9 1.48072 37.9 2.78072C37.9 4.08072 39 5.08072 40.2 5.08072Z" fill="#747678"/>
    <path d="M77.5 19.5807C77.5 19.4807 77.6 19.4807 77.6 19.4807H82.4C82.5 19.4807 82.6 19.3807 82.6 19.2807V18.1807C82.6 18.0807 82.5 17.9807 82.4 17.9807H76C75.9 17.9807 75.8 18.0807 75.8 18.1807V30.0807C75.8 30.1807 75.9 30.2807 76 30.2807H77.4C77.5 30.2807 77.6 30.1807 77.6 30.0807V24.7807H81.4C81.5 24.7807 81.6 24.6807 81.6 24.5807V23.4807C81.6 23.3807 81.5 23.2807 81.4 23.2807H77.6V19.5807H77.5ZM68.2 18.7807C67.5 18.7807 67.2 19.1807 67.2 19.7807C67.2 20.4807 67.5 20.7807 68.2 20.7807C68.9 20.7807 69.2 20.4807 69.2 19.7807C69.2 19.1807 68.9 18.7807 68.2 18.7807ZM67.6 31.0807C67.6 31.8807 67.2 32.3807 66.3 32.3807H65.7C65.6 32.3807 65.5 32.4807 65.5 32.5807V33.5807C65.5 33.6807 65.6 33.7807 65.7 33.7807H66.7C68.3 33.7807 69.2 32.8807 69.2 31.2807V22.6807C69.2 22.5807 69.1 22.4807 69 22.4807H66.2C66.1 22.4807 66 22.5807 66 22.6807V23.6807C66 23.7807 66.1 23.8807 66.2 23.8807H67.5V31.0807H67.6ZM53.6 29.6807C54.6 30.1807 55.6 30.3807 57 30.3807C59.4 30.3807 60.8 28.9807 60.8 27.0807C60.8 25.2807 59.9 24.3807 57.6 23.2807C55.7 22.3807 55.5 21.8807 55.5 21.0807C55.5 20.1807 56.1 19.4807 57.5 19.4807C58.5 19.4807 59.1 19.6807 59.9 19.9807C60 20.0807 60.1 19.9807 60.1 19.8807L60.6 18.8807C60.7 18.7807 60.6 18.6807 60.5 18.6807C59.5 18.2807 58.6 18.0807 57.2 18.0807C54.9 18.0807 53.6 19.5807 53.6 21.2807C53.6 22.8807 54.3 23.8807 56.6 24.9807C58.5 25.9807 58.9 26.4807 58.9 27.4807C58.9 28.5807 58.1 29.1807 56.8 29.1807C55.5 29.1807 54.9 28.8807 54.2 28.5807C54.1 28.4807 54 28.5807 54 28.6807L53.5 29.7807C53.5 29.5807 53.5 29.6807 53.6 29.6807Z" fill="black"/>
    <path d="M90.9 0.880722C90.9 0.680722 90.8 0.68071 90.7 0.68071H88.4C88.3 0.68071 88.2 0.780722 88.2 0.880722V9.08072C88.2 10.2807 87.5 10.8807 86.2 10.8807C84.9 10.8807 84.2 10.2807 84.2 9.08072V0.880722C84.2 0.680722 84.1 0.68071 84 0.68071H81.7C81.5 0.68071 81.5 0.780722 81.5 0.880722V9.18071C81.5 11.5807 82.8 13.0807 86.2 13.0807C89.5 13.0807 90.9 11.5807 90.9 9.18071V0.880722ZM72.4 12.9807C72.6 12.9807 72.6 12.8807 72.6 12.7807V3.08072C72.6 2.98072 72.6 2.98071 72.7 2.98071H75.6C75.7 2.98071 75.8 2.88072 75.8 2.78072V1.08072C75.8 0.880719 75.7 0.880722 75.6 0.880722H66.9C66.7 0.880722 66.7 0.980719 66.7 1.08072V2.78072C66.7 2.98072 66.8 2.98071 66.9 2.98071H69.7C69.8 2.98071 69.8 3.08072 69.8 3.08072V12.7807C69.8 12.9807 69.9 12.9807 70 12.9807H72.4ZM53.6 12.3807C54.8 12.9807 55.9 13.0807 57.3 13.0807C59.9 13.0807 61.6 11.7807 61.6 9.38072C61.6 7.68072 60.8 6.58071 58.7 5.68071C56.9 4.98071 56.6 4.58071 56.6 3.98071C56.6 3.28071 57.1 2.78072 58.2 2.78072C59 2.78072 59.7 2.88071 60.3 3.18071C60.5 3.28071 60.6 3.18072 60.6 3.08072L61.4 1.48071C61.5 1.38071 61.5 1.28071 61.3 1.18071C60.1 0.68071 59.3 0.480713 57.7 0.480713C55.2 0.480713 53.7 1.98071 53.7 3.98071C53.7 5.78071 54.6 6.88072 56.7 7.78072C58.3 8.48072 58.7 8.88072 58.7 9.58072C58.7 10.2807 58.1 10.7807 57.1 10.7807C55.9 10.7807 55.3 10.5807 54.6 10.1807C54.5 10.0807 54.4 10.1807 54.3 10.2807L53.5 12.0807C53.5 12.1807 53.5 12.2807 53.6 12.3807Z" fill="black"/>
</svg>
