<svg width="120" height="26" viewBox="0 0 120 26" fill="none" xmlns="http://www.w3.org/2000/svg">
<path d="M1.9668 14.9258C3.0502 14.9258 3.93231 14.0645 3.93231 12.9999C3.93231 11.934 3.0502 11.0791 1.9668 11.0791C0.879545 11.0791 0 11.934 0 12.9999C0 14.0645 0.879545 14.9258 1.9668 14.9258Z" fill="#971D32"/>
<path d="M1.9668 25.5C3.0502 25.5 3.93231 24.64 3.93231 23.5792C3.93231 22.5145 3.0502 21.6495 1.9668 21.6495C0.879545 21.6495 0 22.5145 0 23.5792C0 24.64 0.879545 25.5 1.9668 25.5Z" fill="#971D32"/>
<path d="M12.7676 14.9258C13.8535 14.9258 14.7318 14.0645 14.7318 12.9999C14.7318 11.934 13.8535 11.0791 12.7676 11.0791C11.6816 11.0791 10.8008 11.934 10.8008 12.9999C10.8008 14.0645 11.6816 14.9258 12.7676 14.9258Z" fill="#971D32"/>
<path d="M12.7676 25.5C13.8535 25.5 14.7318 24.64 14.7318 23.5792C14.7318 22.5145 13.8535 21.6495 12.7676 21.6495C11.6816 21.6495 10.8008 22.5145 10.8008 23.5792C10.8008 24.64 11.6816 25.5 12.7676 25.5Z" fill="#971D32"/>
<path d="M23.5632 14.9258C24.6518 14.9258 25.5313 14.0645 25.5313 12.9999C25.5313 11.934 24.6518 11.0791 23.5632 11.0791C22.476 11.0791 21.6016 11.934 21.6016 12.9999C21.6016 14.0645 22.476 14.9258 23.5632 14.9258Z" fill="#971D32"/>
<path d="M1.9668 4.34766C3.0502 4.34766 3.93231 3.48641 3.93231 2.4243C3.93231 1.35841 3.0502 0.500936 1.9668 0.500936C0.879545 0.500936 0 1.35841 0 2.4243C0 3.48641 0.879545 4.34766 1.9668 4.34766Z" fill="#971D32"/>
<path d="M12.7676 4.34766C13.8535 4.34766 14.7318 3.48641 14.7318 2.4243C14.7318 1.35841 13.8535 0.500936 12.7676 0.500936C11.6816 0.500936 10.8008 1.35841 10.8008 2.4243C10.8008 3.48641 11.6816 4.34766 12.7676 4.34766Z" fill="#971D32"/>
<path d="M23.5632 4.34766C24.6518 4.34766 25.5313 3.48641 25.5313 2.4243C25.5313 1.35841 24.6518 0.500936 23.5632 0.500936C22.476 0.500936 21.6016 1.35841 21.6016 2.4243C21.6016 3.48641 22.476 4.34766 23.5632 4.34766Z" fill="#971D32"/>
<path d="M23.5632 25.5C24.6518 25.5 25.5313 24.64 25.5313 23.5792C25.5313 22.5145 24.6518 21.6495 23.5632 21.6495C22.476 21.6495 21.6016 22.5145 21.6016 23.5792C21.6016 24.64 22.476 25.5 23.5632 25.5Z" fill="#971D32"/>
<path d="M34.3653 14.9258C35.4513 14.9258 36.3321 14.0645 36.3321 12.9999C36.3321 11.934 35.4513 11.0791 34.3653 11.0791C33.2793 11.0791 32.4023 11.934 32.4023 12.9999C32.4023 14.0645 33.2793 14.9258 34.3653 14.9258Z" fill="#971D32"/>
<path d="M34.3653 25.5C35.4513 25.5 36.3321 24.64 36.3321 23.5792C36.3321 22.5145 35.4513 21.6495 34.3653 21.6495C33.2793 21.6495 32.4023 22.5145 32.4023 23.5792C32.4023 24.64 33.2793 25.5 34.3653 25.5Z" fill="#971D32"/>
<path d="M34.3653 4.34766C35.4513 4.34766 36.3321 3.48641 36.3321 2.42178C36.3321 1.36218 35.4513 0.49968 34.3653 0.49968C33.2793 0.49968 32.4023 1.36218 32.4023 2.42178C32.4023 3.48641 33.2793 4.34766 34.3653 4.34766Z" fill="#971D32"/>
<path d="M46.5812 23.6838L47.8621 20.8025C47.966 20.5652 48.1378 20.4974 48.3814 20.5991C49.8008 21.2431 51.1163 21.7516 53.6076 21.7516C55.9617 21.7516 57.3811 20.6669 57.3811 18.8702C57.3811 17.1753 56.5861 16.2274 52.9845 14.6003C48.5545 12.599 46.8928 10.4646 46.8928 7.10865C46.8928 3.41245 49.6277 0.498419 54.6128 0.498419C57.6939 0.498419 59.321 0.735706 61.6046 1.71877C61.8482 1.82046 61.9162 1.98996 61.8136 2.26115L60.4981 4.83744C60.3942 5.07474 60.2211 5.17643 59.9429 5.03958C58.4555 4.46456 57.1054 4.15822 55.3052 4.15822C52.8126 4.15822 51.7048 5.41372 51.7048 7.00696C51.7048 8.53114 52.2587 9.31207 55.9976 10.9392C60.4981 13.007 62.1944 14.9041 62.1944 18.4647C62.1944 22.8025 59.112 25.4453 53.9551 25.4453C51.0817 25.4453 49.0046 25.1754 46.7543 24.0555C46.5812 23.955 46.512 23.8533 46.5812 23.6838Z" fill="#971D32"/>
<path d="M79.6725 25.2109C79.4302 25.2109 79.2917 25.0753 79.2917 24.8042V4.60181C79.2917 4.43232 79.2225 4.33063 79.0494 4.33063H73.1641C72.8885 4.33063 72.75 4.19503 72.75 3.92384V1.14415C72.75 0.872963 72.8885 0.73737 73.1641 0.73737H89.9544C90.1967 0.73737 90.3339 0.872963 90.3339 1.14415V3.92384C90.3339 4.19503 90.1967 4.33063 89.9544 4.33063H83.9999C83.8255 4.33063 83.7576 4.43232 83.7576 4.60181V24.8042C83.7576 25.0753 83.6191 25.2109 83.3421 25.2109H79.6725Z" fill="#971D32"/>
<path d="M120 17.6538C120 22.4335 117.785 25.4492 110.966 25.4492C104.146 25.4492 101.932 22.4335 101.932 17.6538V1.14639C101.932 0.875206 102.068 0.738358 102.346 0.738358H106.014C106.256 0.738358 106.395 0.875206 106.395 1.14639V17.9576C106.395 20.7047 107.919 21.8572 110.966 21.8572C114.012 21.8572 115.536 20.6695 115.536 17.9576V1.14639C115.536 0.875206 115.673 0.738358 115.915 0.738358H119.654C119.896 0.738358 120 0.875206 120 1.14639V17.6538Z" fill="#971D32"/>
</svg>
