<svg width="45" height="61" viewBox="0 0 45 61" fill="none" xmlns="http://www.w3.org/2000/svg">
<path d="M27.7715 51.1674L27.8937 51.6522L27.7715 51.1674ZM23.194 51.8074L22.6973 51.7504L22.6314 52.3255L23.2099 52.3071L23.194 51.8074ZM23.9039 8.86346L23.8718 9.36243L23.9039 8.86346ZM17.9161 51.3286L17.81 51.8172L18.5001 51.9671L18.4122 51.2664L17.9161 51.3286ZM17.3416 47.3248L17.836 47.2504L17.3416 47.3248ZM18.0496 31.9053L17.6591 31.5929L17.6543 31.599L17.6496 31.6053L18.0496 31.9053ZM17.8358 28.5324L17.4881 28.8917V28.8918L17.8358 28.5324ZM17.2462 25.1566L16.7924 24.9467L16.7924 24.9467L17.2462 25.1566ZM17.6486 20.6124L18.1348 20.4957L17.1486 20.6124H17.6486ZM23.5191 20.6124H24.0191L23.0329 20.4957L23.5191 20.6124ZM23.9215 25.1566L24.3753 24.9467V24.9467L23.9215 25.1566ZM23.3319 28.5324L23.6797 28.8918L23.3319 28.5324ZM23.1182 31.9053L23.5182 31.6053L23.5135 31.599L23.5086 31.5929L23.1182 31.9053ZM23.8261 47.3248L24.3206 47.3992L23.8261 47.3248ZM22.6563 16.2689L22.1765 16.4098V16.4098L22.6563 16.2689ZM24.0714 20.369L23.602 20.5411L24.0714 20.369ZM26.3315 42.3964L25.8327 42.3616L26.8268 42.4648L26.3315 42.3964ZM25.964 35.2464L25.5254 35.4865L25.964 35.2464ZM23.7268 32.8735L23.4465 33.2875L23.4465 33.2875L23.7268 32.8735ZM27.6493 50.6825C26.2125 51.0447 24.7164 51.2588 23.1782 51.3076L23.2099 52.3071C24.8205 52.256 26.3878 52.0318 27.8937 51.6522L27.6493 50.6825ZM43.5 30.3184C43.5 40.1392 36.7581 48.3866 27.6493 50.6825L27.8937 51.6522C37.4361 49.247 44.5 40.6082 44.5 30.3184H43.5ZM23.8718 9.36243C34.8301 10.0688 43.5 19.1813 43.5 30.3184H44.5C44.5 18.6505 35.4172 9.10453 23.9361 8.3645L23.8718 9.36243ZM22.5 9.31836C22.9609 9.31836 23.4183 9.3332 23.8718 9.36243L23.9361 8.3645C23.4613 8.33389 22.9824 8.31836 22.5 8.31836V9.31836ZM1.5 30.3184C1.5 18.7204 10.902 9.31836 22.5 9.31836V8.31836C10.3497 8.31836 0.5 18.1681 0.5 30.3184H1.5ZM18.0222 50.84C8.57541 48.7886 1.5 40.3792 1.5 30.3184H0.5C0.5 40.8595 7.91308 49.668 17.81 51.8172L18.0222 50.84ZM18.4122 51.2664C18.2713 50.1437 18.0601 48.7401 17.836 47.2504L16.8472 47.3992C17.0719 48.8931 17.281 50.283 17.42 51.3909L18.4122 51.2664ZM17.836 47.2504C17.322 43.8336 16.7454 39.9906 16.7454 37.8524H15.7454C15.7454 40.0851 16.3392 44.0224 16.8472 47.3992L17.836 47.2504ZM16.7454 37.8524C16.7454 35.1458 17.9011 32.9366 18.4496 32.2053L17.6496 31.6053C16.9953 32.4777 15.7454 34.8925 15.7454 37.8524H16.7454ZM18.44 32.2176C18.5963 32.0223 18.8175 31.6927 19.0018 31.3075C19.1831 30.9285 19.3514 30.449 19.3514 29.9674H18.3514C18.3514 30.2343 18.2525 30.5567 18.0997 30.8759C17.9499 31.189 17.7702 31.4542 17.6591 31.5929L18.44 32.2176ZM19.3514 29.9674C19.3514 29.5659 19.1356 29.2187 18.9296 28.9578C18.7153 28.6865 18.4349 28.4164 18.1835 28.1731L17.4881 28.8918C17.7529 29.148 17.9803 29.3693 18.1448 29.5776C18.3175 29.7963 18.3514 29.9168 18.3514 29.9674H19.3514ZM18.1835 28.1731C17.901 27.8998 17.6486 27.6541 17.4632 27.4142C17.2728 27.1679 17.2131 27.0019 17.2131 26.8936H16.2131C16.2131 27.3378 16.4389 27.7242 16.6719 28.0257C16.9099 28.3336 17.2188 28.6311 17.4881 28.8917L18.1835 28.1731ZM17.2131 26.8936C17.2131 26.4402 17.4344 25.9408 17.7 25.3665L16.7924 24.9467C16.5511 25.4685 16.2131 26.178 16.2131 26.8936H17.2131ZM17.7 25.3665C17.8029 25.1441 17.9129 24.9071 17.9956 24.682C18.0771 24.4602 18.1486 24.2077 18.1486 23.9535H17.1486C17.1486 24.0324 17.1241 24.1543 17.0569 24.3372C16.991 24.5167 16.8997 24.7148 16.7924 24.9467L17.7 25.3665ZM18.1486 23.9535V20.6124H17.1486V23.9535H18.1486ZM17.1625 20.729C17.3215 21.3916 17.8013 22.2076 18.3847 22.8523C18.6809 23.1797 19.02 23.4812 19.3823 23.7039C19.7414 23.9247 20.153 24.0859 20.5839 24.0859V23.0859C20.4 23.0859 20.1707 23.0147 19.906 22.852C19.6444 22.6912 19.3766 22.4581 19.1262 22.1813C18.6161 21.6176 18.2431 20.9468 18.1348 20.4957L17.1625 20.729ZM20.5839 24.0859C21.0148 24.0859 21.4263 23.9247 21.7855 23.7039C22.1478 23.4812 22.4868 23.1797 22.7831 22.8523C23.3664 22.2076 23.8463 21.3916 24.0053 20.729L23.0329 20.4957C22.9246 20.9468 22.5516 21.6176 22.0416 22.1813C21.7911 22.4581 21.5233 22.6912 21.2618 22.852C20.9971 23.0147 20.7677 23.0859 20.5839 23.0859V24.0859ZM23.0191 20.6124V23.9535H24.0191V20.6124H23.0191ZM23.0191 23.9535C23.0191 24.2077 23.0907 24.4602 23.1721 24.682C23.2548 24.9071 23.3648 25.1441 23.4677 25.3665L24.3753 24.9467C24.268 24.7148 24.1768 24.5167 24.1108 24.3372C24.0436 24.1543 24.0191 24.0324 24.0191 23.9535H23.0191ZM23.4677 25.3665C23.7333 25.9408 23.9546 26.4402 23.9546 26.8936H24.9546C24.9546 26.178 24.6167 25.4685 24.3753 24.9467L23.4677 25.3665ZM23.9546 26.8936C23.9546 27.0019 23.8949 27.1679 23.7046 27.4142C23.5192 27.6541 23.2667 27.8998 22.9842 28.1731L23.6797 28.8918C23.949 28.6311 24.2578 28.3336 24.4958 28.0257C24.7288 27.7242 24.9546 27.3378 24.9546 26.8936H23.9546ZM22.9842 28.1731C22.7329 28.4164 22.4524 28.6865 22.2382 28.9578C22.0321 29.2187 21.8163 29.5659 21.8163 29.9674H22.8163C22.8163 29.9168 22.8502 29.7963 23.0229 29.5776C23.1875 29.3693 23.4149 29.148 23.6797 28.8918L22.9842 28.1731ZM21.8163 29.9674C21.8163 30.449 21.9846 30.9285 22.166 31.3075C22.3503 31.6927 22.5715 32.0223 22.7277 32.2176L23.5086 31.5929C23.3976 31.4542 23.2178 31.189 23.068 30.8759C22.9153 30.5567 22.8163 30.2343 22.8163 29.9674H21.8163ZM22.7182 32.2053C23.2667 32.9366 24.4224 35.1458 24.4224 37.8524H25.4224C25.4224 34.8925 24.1724 32.4777 23.5182 31.6053L22.7182 32.2053ZM24.4224 37.8524C24.4224 39.9906 23.8457 43.8336 23.3317 47.2504L24.3206 47.3992C24.8286 44.0224 25.4224 40.0851 25.4224 37.8524H24.4224ZM23.3317 47.2504C23.0744 48.9608 22.8339 50.5593 22.6973 51.7504L23.6908 51.8643C23.8249 50.6947 24.0622 49.1166 24.3206 47.3992L23.3317 47.2504ZM21.773 8.77237C21.5147 11.4969 21.5454 14.2607 22.1765 16.4098L23.136 16.128C22.5585 14.1612 22.5143 11.5477 22.7685 8.86675L21.773 8.77237ZM22.1765 16.4098C22.5368 17.6367 23.0547 19.0484 23.602 20.5411L24.5409 20.1969C23.9901 18.6947 23.4851 17.3168 23.136 16.128L22.1765 16.4098ZM23.602 20.5411C24.9762 24.2889 26.5331 28.5535 26.5331 32.1392H27.5331C27.5331 28.3391 25.896 23.8926 24.5409 20.1969L23.602 20.5411ZM26.5331 32.1392C26.5331 36.2526 26.068 40.65 25.8362 42.3279L26.8268 42.4648C27.0627 40.757 27.5331 36.3117 27.5331 32.1392H26.5331ZM26.8303 42.4311C26.8979 41.4622 26.9604 39.9395 26.9282 38.5127C26.9122 37.7998 26.8723 37.1015 26.7954 36.504C26.7211 35.9259 26.605 35.376 26.4025 35.0062L25.5254 35.4865C25.6303 35.6781 25.7305 36.0631 25.8036 36.6316C25.8742 37.1806 25.9128 37.8405 25.9285 38.5353C25.9598 39.9239 25.8987 41.4149 25.8327 42.3616L26.8303 42.4311ZM26.4025 35.0062C26.0153 34.2991 25.6818 33.8328 25.2966 33.4503C24.9179 33.0742 24.5044 32.7962 24.0071 32.4595L23.4465 33.2875C23.96 33.6352 24.2916 33.8616 24.592 34.1599C24.886 34.4518 25.1657 34.8297 25.5254 35.4865L26.4025 35.0062ZM24.0072 32.4595L23.9742 32.4372L23.4135 33.2652L23.4465 33.2875L24.0072 32.4595Z" fill="#FF5660"/>
<path d="M23.1181 52.5532C23.9834 53.5054 26.8593 53.7293 27.5008 53.3551C28.3027 52.8873 28.6368 52.6869 28.0688 51.6511C27.5008 50.6154 26.4985 49.7467 26.6321 48.3434C26.7658 46.9402 29.9398 40.7925 30.274 38.2533C30.6081 35.7141 30.8419 34.979 30.8419 31.9052C30.8419 28.8314 28.1691 22.8508 27.0331 19.8438C25.9524 16.9831 22.5129 6.68335 23.533 1.71804M23.1181 52.5532C22.9043 55.0657 24.2318 58.3222 24.9223 59.6364C24.3432 59.1909 22.3296 58.2999 20.5839 58.2999C18.8382 58.2999 16.8245 59.1909 16.2454 59.6364C16.9359 58.3222 18.2634 55.0657 18.0496 52.5532C17.7823 49.4126 16.2454 41.3939 16.2454 37.8524C16.2454 35.0191 17.4482 32.7071 18.0496 31.9052C18.3168 31.5711 18.8514 30.7158 18.8514 29.9674C18.8514 29.0319 16.7131 27.9627 16.7131 26.8936C16.7131 25.8244 17.6486 24.6884 17.6486 23.9534V20.6123C17.9159 21.726 19.3543 23.5859 20.5838 23.5859C21.8134 23.5859 23.2518 21.726 23.5191 20.6123V23.9534C23.5191 24.6884 24.4546 25.8244 24.4546 26.8936C24.4546 27.9627 22.3163 29.0319 22.3163 29.9674C22.3163 30.7158 22.8508 31.5711 23.1181 31.9052C23.7195 32.7071 24.9223 35.0191 24.9223 37.8524C24.9223 41.3939 23.3854 49.4126 23.1181 52.5532ZM23.533 1.71804C23.5852 1.46418 23.649 1.22427 23.7254 1C23.661 1.23165 23.5968 1.47129 23.533 1.71804ZM23.533 1.71804C22.4382 5.95558 21.4881 12.2907 22.6562 16.2688C23.8924 20.4786 27.0331 26.9604 27.0331 32.1391C27.0331 36.2821 26.5653 40.7034 26.3314 42.3963C26.4651 40.4807 26.5787 36.3689 25.9639 35.2463C25.2089 33.8677 24.7272 33.5509 23.6939 32.8511" stroke="#FF5660" stroke-linecap="round" stroke-linejoin="round"/>
</svg>
