<svg width="237" height="40" viewBox="0 0 237 40" fill="none" xmlns="http://www.w3.org/2000/svg">
<g clip-path="url(#clip0)">
<path d="M14.1177 24.6288C14.0428 24.6288 13.9679 24.6288 13.8681 24.6288C7.92927 24.6288 3.08835 19.8129 3.08835 13.849C3.08835 7.91017 7.92927 3.06925 13.8681 3.06925C13.9679 3.06925 14.0428 3.0942 14.1177 3.0942V0H13.8931H13.8681C6.23245 0 0.0440572 6.1884 0.019104 13.8241V13.874C0.0440572 21.5097 6.23245 27.6981 13.8681 27.6981C13.9679 27.6981 14.0428 27.6981 14.1177 27.6981V24.6288Z" fill="#393738"/>
<path d="M13.8681 9.2327C13.968 9.2327 14.0428 9.2327 14.1177 9.25765V6.16345C14.0428 6.16345 13.968 6.16345 13.8681 6.16345C9.6261 6.16345 6.18256 9.607 6.18256 13.849C6.18256 18.116 9.6261 21.5596 13.8681 21.5596C13.968 21.5596 14.2924 21.5346 14.3922 21.5346C16.9374 21.5346 19.0085 23.5808 19.0085 26.151C19.0085 28.6962 16.9374 30.7673 14.3922 30.7673C14.2924 30.7673 14.2175 30.7424 14.1177 30.7424V33.8366C14.2175 33.8366 14.2924 33.8366 14.3922 33.8366C18.6342 33.8366 22.0778 30.393 22.0778 26.151C22.0778 21.884 18.6342 18.4404 14.3922 18.4404C14.2924 18.4404 13.968 18.4654 13.8681 18.4654C11.3229 18.4654 9.2518 16.3943 9.2518 13.849C9.2518 11.3038 11.3229 9.2327 13.8681 9.2327Z" fill="#393738"/>
<path d="M14.3922 12.277C14.2923 12.277 14.2175 12.3019 14.1177 12.3019V15.3712C14.2175 15.3712 14.2923 15.3712 14.3922 15.3712C20.331 15.3712 25.147 20.1871 25.147 26.151C25.147 32.0898 20.331 36.9058 14.3922 36.9058C14.2923 36.9058 14.2175 36.9058 14.1177 36.9058V40H14.3173H14.3423H14.4171C22.0528 39.975 28.2412 33.7867 28.2412 26.151C28.2412 18.4903 22.0278 12.277 14.3922 12.277Z" fill="#393738"/>
<path d="M45.2606 16.0577C44.5106 15.8462 43.2221 15.6538 41.8375 15.6538C39.9913 15.6538 39.4529 16 39.4529 16.8654C39.4529 17.6538 39.8183 17.9423 41.9721 18.1731C44.8183 18.4808 46.0875 19.5769 46.0875 21.9615C46.0875 24.9615 44.5106 25.9615 40.8375 26H40.3183C38.8952 25.9808 37.4721 25.75 36.5298 25.4231L37.1067 22.9615C37.9144 23.1731 39.1644 23.3654 40.5298 23.3654C42.3759 23.3654 42.9721 23.0962 42.9721 22.1538C42.9721 21.3654 42.6259 20.9808 40.299 20.7308C37.6259 20.4615 36.3759 19.5769 36.3759 17.2692C36.3759 14.1923 38.1644 13 41.8567 13C43.3567 13 44.8567 13.25 45.8375 13.5962L45.2606 16.0577Z" fill="#393738"/>
<path d="M53.4528 15.8077C52.9721 17.1154 52.3952 18.7884 51.8375 20.5192H55.3952C54.8375 18.8269 54.299 17.1346 53.9144 15.8077H53.4528ZM56.2221 23H51.0875C50.7798 24.0384 50.5105 24.9808 50.299 25.75H47.2221C48.2605 22.2692 50.2028 16.8077 51.6259 13.3077H56.0875C57.2605 17.2115 59.1067 22.5 60.4528 25.75H57.2798C56.9721 25.0192 56.5875 24.0577 56.2221 23Z" fill="#393738"/>
<path d="M72.4336 13.3077H76.1067V25.75H73.3183V17.3461C72.3759 19.4423 71.0875 22.6154 70.2606 24.7308H67.9721C67.1836 22.6538 65.9529 19.3461 65.0682 17.3461V25.75H62.2798V13.3077H66.1259C67.1644 15.3846 68.3952 18.25 69.3182 20.5961C70.2221 18.2308 71.4529 15.3654 72.4336 13.3077Z" fill="#393738"/>
<path d="M84.299 15.8077C83.799 17.1154 83.2413 18.7884 82.6644 20.5192H86.2413C85.6644 18.8269 85.1259 17.1346 84.7606 15.8077H84.299ZM87.049 23H81.9336C81.6067 24.0384 81.3375 24.9808 81.1259 25.75H78.049C79.0875 22.2692 81.049 16.8077 82.4721 13.3077H86.9144C88.0875 17.2115 89.9529 22.5 91.2798 25.75H88.1067C87.799 25.0192 87.4336 24.0577 87.049 23Z" fill="#393738"/>
<path d="M95.9913 18.9615H99.1836C99.799 18.9615 100.28 18.5 100.28 17.4038C100.28 16.2692 99.8567 15.75 99.2221 15.75H95.9913V18.9615ZM104.453 25.75H100.857C98.9336 22.3654 98.0298 21.3077 97.2606 21.3077H95.9913V25.75H93.1067V13.3077H100.049C102.607 13.3077 103.472 14.9038 103.472 16.9615C103.472 18.7308 102.722 20.2884 100.357 20.4231C101.203 20.7308 102.126 21.8461 104.453 25.75Z" fill="#393738"/>
<path d="M111.934 15.8077C111.453 17.1154 110.876 18.7884 110.299 20.5192H113.876C113.299 18.8269 112.78 17.1346 112.395 15.8077H111.934ZM114.703 23H109.568C109.261 24.0384 108.991 24.9808 108.78 25.75H105.703C106.741 22.2692 108.684 16.8077 110.107 13.3077H114.549C115.741 17.2115 117.587 22.5 118.934 25.75H115.761C115.453 25.0192 115.068 24.0577 114.703 23Z" fill="#393738"/>
<path d="M140.741 21.4423C140.741 25.1346 139.049 25.9808 135.914 26H135.53C132.434 25.9808 130.703 25.1346 130.703 21.4423V13.3077H132.011V21.4615C132.011 24.3654 133.299 24.8846 135.741 24.8846C138.203 24.8846 139.453 24.2884 139.453 21.4615V13.3077H140.741V21.4423Z" fill="#393738"/>
<path d="M145.684 25.75H144.395V13.3077H146.145C148.357 16.5961 150.549 20.2884 152.511 23.8461V13.3077H153.818V25.75H152.28C150.318 22.1154 148.068 18.3077 145.684 14.6154V25.75Z" fill="#393738"/>
<path d="M158.876 25.75H157.607V13.3077H158.876V25.75Z" fill="#393738"/>
<path d="M171.222 13.3077H172.511C171.126 17.4808 169.607 21.5961 167.799 25.75H166.107C164.799 21.5769 163.011 16.75 161.434 13.3077H162.895C164.299 16.6538 165.818 20.8077 167.03 24.7692C168.684 20.8846 169.991 17.2115 171.222 13.3077Z" fill="#393738"/>
<path d="M183.664 13.3077V14.3846H176.434V18.5577H181.568V19.6346H176.434V24.6923H183.664V25.75H175.145V13.3077H183.664Z" fill="#393738"/>
<path d="M187.761 14.3846V19.2308H191.953C193.414 19.2308 194.145 18.3269 194.145 16.9038C194.145 15.2692 193.395 14.3846 192.03 14.3846H187.761ZM192.03 13.3077C194.799 13.3077 195.568 15 195.568 16.9231C195.568 18.6731 194.703 20.2115 191.972 20.2115C192.876 20.5 194.453 22.6154 196.337 25.75H194.722C192.741 22.2692 191.107 20.3654 190.184 20.3654H187.761V25.75H186.491V13.3077H192.03Z" fill="#393738"/>
<path d="M203.607 14.1731C201.395 14.1731 199.991 14.6923 199.991 16.6154C199.991 17.8654 200.684 18.5769 203.145 18.75C206.126 18.9808 207.453 20.0577 207.453 22.3654C207.453 24.9615 205.491 25.9808 202.53 26H202.299C201.203 26 199.799 25.8077 198.857 25.5L199.222 24.3654C199.991 24.6538 201.395 24.8269 202.376 24.8269C204.568 24.8269 206.087 24.3077 206.087 22.3846C206.087 21.1538 205.414 20.1538 202.953 19.9808C199.972 19.75 198.607 18.9423 198.607 16.6538C198.607 14 200.549 13 203.587 13C204.684 13 206.049 13.2115 207.011 13.5L206.664 14.6538C206.087 14.3654 204.626 14.1731 203.607 14.1731Z" fill="#393738"/>
<path d="M211.837 25.75H210.549V13.3077H211.837V25.75Z" fill="#393738"/>
<path d="M220.011 25.75H218.703V14.3846H214.376V13.3077H224.299V14.3846H220.011V25.75Z" fill="#393738"/>
<path d="M232.107 25.75H230.799V19.7692C229.395 17.7115 227.799 15.5577 225.953 13.3077H227.568C228.972 15.0192 230.337 16.9231 231.568 18.75C232.934 17.0192 234.28 15.1346 235.491 13.3077H236.972C235.414 15.5192 233.799 17.7115 232.107 19.7692V25.75Z" fill="#393738"/>
</g>
<defs>
<clipPath id="clip0">
<rect width="237" height="40" fill="white"/>
</clipPath>
</defs>
</svg>
