<?xml version="1.0" encoding="UTF-8"?><svg id="_Слой_1" xmlns="http://www.w3.org/2000/svg" viewBox="0 0 261 88" width="261" height="88" style="enable-background:new 0 0 261 88;" ><path id="svg_33" d="M157.5,68.6c-1.2.5-2.5.7-3.8.7-4.4,0-6.6-2.8-6.6-7,0-3.8,1.7-6.1,5.7-6.1,3.4,0,5,1.9,5,5.2h-7.8c0,3.1,1.3,6.5,4.9,6.5.9,0,1.7-.1,2.5-.5l.1,1.2ZM155,60.2c0-1.6-.6-3.2-2.4-3.2s-2.6,1.6-2.6,3.2h5Z" style="fill:#fff; stroke-width:0px;"/><path id="svg_34" d="M169.6,66.7c1,.8,2.3,1.3,3.6,1.4,1.2,0,2.3-.5,2.3-1.8,0-2.7-5.9-2.8-5.9-6.5,0-2.6,2.2-3.6,4.5-3.6,1,0,2,.2,3,.5v2c-.9-.8-2-1.2-3.2-1.3-.9,0-1.9.4-1.9,1.5,0,2.6,5.9,2.6,5.9,6.8,0,2.8-2.4,3.7-4.9,3.7-1.2,0-2.3-.2-3.5-.5l.1-2.2h0Z" style="fill:#fff; stroke-width:0px;"/><path id="svg_35" d="M194,69.1c-.6.1-1.2.2-1.8.2-2.7,0-4.1-.5-4.1-3.5v-8.3h-2.1v-1.1h2.1v-2.1l2.7-2.4v4.5h3.5v1.1h-3.5v7.8c0,1.8.1,2.7,2.2,2.7.3,0,.7,0,1-.1v1.2Z" style="fill:#fff; stroke-width:0px;"/><path id="svg_36" d="M108.5,50.8v11.5c0,3.2-.2,5.7-4.1,5.7s-3.9-3.4-3.9-6.3v-10.9h-2.9v12.2c0,4.4,2.1,6.3,6.5,6.3,5.3,0,6.4-2.6,6.4-7.3v-11.2h-2Z" style="fill:#fff; stroke-width:0px;"/><path id="svg_37" d="M121.1,56.2c-2.1,0-3.7,1.7-4.5,3.5h-.1v-3.5h-2.7v12.8h2.7v-6.5c0-1.7,1.4-4.4,3.3-4.4s1.8,2.6,1.8,4v7h2.7v-9c.1-2.3-.8-3.9-3.2-3.9Z" style="fill:#fff; stroke-width:0px;"/><path id="svg_38" d="M130.2,54c1,0,1.7-.7,1.8-1.7,0-.9-.8-1.7-1.7-1.7s-1.7.8-1.7,1.7c0,1,.7,1.7,1.6,1.7h0Z" style="fill:#fff; stroke-width:0px;"/><polygon id="svg_39" points="128.9 60.9 128.9 60.9 128.9 69 131.6 69 131.6 56.2 128.9 56.2 128.9 60.9" style="fill:#fff; stroke-width:0px;"/><path id="svg_40" d="M166.7,56.2c-2,0-2.9,1.9-3.4,3.6h0v-3.6h-2.7v12.8h2.7v-6.4c0-2.3,1-4,3.5-4,.5,0,.9.1,1.4.3v-2.6c-.5-.1-1-.1-1.5-.1h0Z" style="fill:#fff; stroke-width:0px;"/><path id="svg_41" d="M181.9,54c1,0,1.7-.7,1.8-1.7,0-.9-.8-1.7-1.7-1.7s-1.7.8-1.7,1.7c-.1,1,.7,1.7,1.6,1.7h0Z" style="fill:#fff; stroke-width:0px;"/><path id="svg_42" d="M180.5,59.7v9.2h2.7v-12.7h-2.8l.1,3.5Z" style="fill:#fff; stroke-width:0px;"/><path id="svg_43" d="M144.1,56.5l-3.7,9.5-3.8-9.5h-3l.9,2.1c.1.3.2.5.4.9l3.9,9.6h2l4.9-12.5c-.1-.1-1.6-.1-1.6-.1Z" style="fill:#fff; stroke-width:0px;"/><path id="svg_44" d="M206,56.5l-3.9,9.9-4-9.9h-2.9l1.7,4.2h0l3.8,9.1c-.4,1.1-1,3.3-2.5,3.3-1.2,0-1.4-1-1.4-2h-3.1c0,1.9,1.6,3.5,3.6,3.5h.2c2.9,0,3.8-2.2,4.7-4.5l5.4-13.6h-1.6Z" style="fill:#fff; stroke-width:0px;"/><path id="svg_45" d="M96.4,38.5c1.6,1,3.4,1.5,5.2,1.6,2,0,3.4-1,3.4-3.2,0-4.4-8.8-4-8.8-9.7,0-3.5,3.1-4.7,6.1-4.7,1.5,0,2.9.2,4.3.5v2c-1.5-.7-3.2-1.2-4.8-1.2-1.3-.1-2.5.8-2.6,2.1v.5c0,4.2,8.8,3.8,8.8,9.6,0,4-3.3,5.3-6.8,5.3-1.6,0-3.2-.3-4.7-.7v-2.1h-.1Z" style="fill:#fff; stroke-width:0px;"/><path id="svg_46" d="M117.2,41.1c-.6.1-1.2.2-1.8.2-2.7,0-4.1-.5-4.1-3.5v-8.3h-2.1v-1.1h2.1v-2.1l2.7-2.4v4.5h3.5v1.1h-3.5v7.9c0,1.8.1,2.7,2.2,2.7.3,0,.7,0,1-.1,0,0,0,1.1,0,1.1Z" style="fill:#fff; stroke-width:0px;"/><path id="svg_47" d="M152,40.6c-1.2.5-2.5.7-3.8.7-4.4,0-6.6-2.8-6.6-7,0-3.8,1.7-6.1,5.7-6.1,3.4,0,5,1.9,5,5.2h-7.7c0,3.1,1.3,6.5,4.9,6.5.9,0,1.7-.1,2.5-.5,0,0,0,1.2,0,1.2ZM149.5,32.2c0-1.6-.6-3.2-2.4-3.2s-2.6,1.6-2.6,3.2h5Z" style="fill:#fff; stroke-width:0px;"/><path id="svg_48" d="M161.5,41.1c-.6.1-1.2.2-1.8.2-2.7,0-4.1-.5-4.1-3.5v-8.3h-2.1v-1.1h2.1v-2.1l2.7-2.4v4.5h3.5v1.1h-3.5v7.9c0,1.8.1,2.7,2.2,2.7.3,0,.7,0,1-.1.1,0,0,1.1,0,1.1Z" style="fill:#fff; stroke-width:0px;"/><path id="svg_49" d="M173.6,40.6c-1.2.5-2.5.7-3.8.7-4.4,0-6.6-2.8-6.6-7,0-3.8,1.7-6.1,5.7-6.1,3.4,0,5,1.9,5,5.2h-7.7c0,3.1,1.3,6.5,4.9,6.5.9,0,1.7-.1,2.5-.5.1,0,0,1.2,0,1.2ZM171.2,32.2c0-1.6-.6-3.2-2.4-3.2s-2.6,1.6-2.6,3.2h5Z" style="fill:#fff; stroke-width:0px;"/><path id="svg_50" d="M185.9,38.7c1,.8,2.3,1.3,3.6,1.4,1.2,0,2.3-.5,2.3-1.8,0-2.7-5.9-2.8-5.9-6.5,0-2.6,2.2-3.6,4.5-3.6,1,0,2,.2,3,.5v2c-.9-.8-2-1.2-3.2-1.3-1,0-1.9.4-1.9,1.5,0,2.6,5.9,2.6,5.9,6.8,0,2.8-2.4,3.7-4.9,3.7-1.2,0-2.3-.2-3.5-.5,0-.1.1-2.2.1-2.2Z" style="fill:#fff; stroke-width:0px;"/><path id="svg_51" d="M134.5,22.8h-5.8v18.2h3v-8.1c4,0,8.4.2,8.4-5.1-.2-3.3-2.5-5-5.6-5ZM133,31.7h-1.4v-5.9c0-1.2.2-1.6,1.5-1.6,2.6,0,3.8.8,3.8,3.6s-1.3,3.9-3.9,3.9h0Z" style="fill:#fff; stroke-width:0px;"/><path id="svg_52" d="M182.9,28.2c-2,0-2.9,1.9-3.4,3.6h-.1v-3.6h-2.7v12.8h2.7v-6.5c0-2.3,1.1-4,3.5-4,.5,0,.9.1,1.4.3v-2.6c-.4,0-.9,0-1.4,0Z" style="fill:#fff; stroke-width:0px;"/><path id="svg_53" d="M203.3,28.2c-1.4-.1-2.8.7-3.4,2h-.1v-7.7h-2.7v18.5h.7l1.8-1.5c.8,1.1,2.1,1.8,3.5,1.8,3.6,0,4.9-3.2,4.9-6.3s-.8-6.8-4.7-6.8ZM202.3,39.9c-2.2,0-2.5-3.2-2.5-4.8v-1.1c0-1.7.4-4.3,2.6-4.3,2.4,0,2.6,3.2,2.6,5,.1,1.8-.1,5.2-2.7,5.2h0Z" style="fill:#fff; stroke-width:0px;"/><path id="svg_54" d="M232.3,28.2c-2,0-2.9,1.9-3.4,3.6h-.1v-3.6h-2.7v12.8h2.7v-6.5c0-2.3,1.1-4,3.5-4,.5,0,.9.1,1.4.3v-2.6c-.5,0-1,0-1.4,0h0Z" style="fill:#fff; stroke-width:0px;"/><path id="svg_55" d="M219.3,28.2v6.8c0,1.7-.9,4.5-2.9,4.5s-2.2-1.6-2.2-3.2v-8.1h-2.7v7.6c0,2.6.3,5.5,3.6,5.5,2.2,0,3.5-1.5,4.2-3.3h.1v3h2.7v-12.8h-2.8Z" style="fill:#fff; stroke-width:0px;"/><path id="svg_56" d="M243.1,28.5v1.5h-.1c-.7-1.2-2-1.9-3.4-1.9-3.9,0-4.8,3.7-4.8,6.9s1.3,6,4.8,6c1.4.1,2.8-.6,3.4-1.9h.1v3.2c0,1.9-.2,3.6-2.6,3.6-1.8,0-2.5-1.2-2.5-2.9h-3c0,3.3,2.9,3.8,5.6,3.8,3.9,0,5.2-1.6,5.2-5.3v-13h-2.7ZM243.1,35.7c0,1.8-.6,3.9-2.8,3.9s-2.5-3.2-2.5-4.9c0-1.8.2-5,2.7-5,1.8,0,2.5,1.9,2.5,3.4l.1,2.6h0Z" style="fill:#fff; stroke-width:0px;"/><path d="M28.73,14.63c.03.06.05.12.08.17.45.95,1.27,1.88,1.27,1.88,0,0,0,0,.01-.01h0s.12-.09.36-.22c.08-.05.18-.1.28-.15.26-.13.6-.28,1.01-.43.99-.35,2.3-.46,2.3-.46,0,0-1.23-1.71-1.46-4.17-.13-1.4-.08-2.13-.06-2.17-.08,0-.17-.01-.25-.01-.93,0-1.78.33-2.46.87-.02.01-.03.03-.05.04-.87.72-1.42,1.8-1.42,3.02,0,.34.05.66.13.98.06.2.15.46.24.67Z" style="fill:#fff; stroke-width:0px;"/><path d="M52.35,26.58c.4.64.38,1.43.38,1.43,0,0,.81.14,1.21.54,0,0,.06-.06.07-.07.54-.67,1.55-1.77,1.83-3.36.24-1.3.08-3.11-.19-3.69,0-.02-.02-.05-.03-.07.26-.3.69-1,1.88-1,.44,0,.82.12,1.14.27.52.25.84.58.84.58,0,0-1.02,1.82-1.56,2.69-.27.44-.47.79-1.03,2.01-.46,1.01-.58,1.68-.5,2.41.07.61.39,1.77.53,2.94.27,2.24-.17,3.34-.17,3.34,0,0,.01,0,.03-.02,0,0,0,.03,0,.03,0,0,2.66-1.76,4.34-5.68,0,0-.01,0-.02,0,0,0,0,0,0,0-.31-.06-.56-.14-.78-.25-.22-.11-.42-.25-.63-.41-1.49-1.14-1.15-2.35-.67-2.92.14-.16.28-.32.43-.48.37-.4.78-.8,1.2-1.3.54-.63.73-1.25.8-1.8.02-.19.05-.38.05-.58,0-1.65-.8-2.77-1.82-3.34-.34-.19-.7-.32-1.07-.38-1.14-.2-2.54.23-3.56.93-.39.26-1.03.85-1.21,1.3-.22,1.11.11,1.39.45,2.54,0,.02.02.04.03.06.7,2.56.34,3.79-1.97,4.28Z" style="fill:#fff; stroke-width:0px;"/><path d="M40.93,24.3c.3.64.85,1.26.85,1.26,0,0,0,0,0,0,0,0,.08.08.08.08,0,0,.3-.26,1.09-.57.65-.25,1.49-.34,1.49-.34,0,0-.82-1.14-.98-2.79-.09-.95-.05-1.45-.04-1.46,0,0-.01,0-.02,0h0c-.42-.08-.85,0-1.25.19-.27.15-.52.32-.72.5-.35.32-.59.67-.68,1.05-.15.4-.2.85-.11,1.31,0,.04.15.52.27.78Z" style="fill:#fff; stroke-width:0px;"/><path d="M44.57,22.61c.36.99.94,1.82,1.4,1.99.07.03.14.05.2.05h0c.47-.06,1.09-1,1.39-2.16.28-1.08.09-1.99-.38-2.37-.11-.08-.23-.15-.35-.21-.02,0-.04-.01-.06-.02.24-.21.4-.51.4-.85,0-.53-.35-.95-.82-1.09v-.46h.79v-.63h-.79v-1h-.64v1h-.79v.63h.79v.46c-.47.14-.82.57-.82,1.09,0,.34.15.63.38.84-.19.08-.36.19-.51.33-.44.42-.55,1.34-.17,2.4Z" style="fill:#fff; stroke-width:0px;"/><path d="M47.78,24.63s1.4.01,2.8.56c.02,0,.04.02.07.03.19-.24.46-.61.64-1,.12-.27.27-.74.27-.78.09-.46.03-.91-.11-1.31-.09-.38-.33-.73-.68-1.05-.2-.18-.45-.35-.72-.5,0,0,0,0,0,0,0,0,0,0,0,0-.4-.19-.83-.27-1.25-.2,0,0,.05.5-.04,1.46-.15,1.65-.98,2.79-.98,2.79,0,0,.01,0,.02,0h0Z" style="fill:#fff; stroke-width:0px;"/><path d="M38.66,15.41s1.32.11,2.3.46c.42.15.76.3,1.01.43.11.05.2.11.28.15.24.14.36.22.36.22h0s.01,0,.01,0c0,0,.82-.92,1.27-1.88.02-.05.05-.11.08-.17.09-.22.18-.47.24-.67.08-.31.13-.64.13-.98,0-1.21-.55-2.3-1.42-3.02-.02-.01-.03-.03-.05-.04-.67-.54-1.53-.87-2.46-.87-.08,0-.17,0-.25.01.02.04.07.77-.06,2.17-.23,2.46-1.46,4.17-1.46,4.17Z" style="fill:#fff; stroke-width:0px;"/><path d="M39.53,19.2s.15.77.25,1.11c0,0,.09,0,.09,0,.58-.23,1.73-.58,1.73-.96v-1.23c0-.22-.22-.43-.62-.61-.81-.38-2.33-.64-4.05-.67h-1c-1.78.02-3.38.28-4.21.67-.4.18-.63.39-.63.61v1.23c0,.38,1.16.73,1.74.96,0,0,.09,0,.1,0,.09-.34.25-1.11.25-1.11,0,0-.13-.05-.15-.1-.07-.15.06-.24.28-.36.22-.12.57-.19.87-.2.18.67.21,1.73.17,2.64-.08,1.82-.42,4.1-1.5,5.66.41.4.86.91,1.33,1.58,1.12-2.14,1.29-4.49,1.39-6.9.04-1.06,0-2.31,0-3.16.1,0,.45-.04.8-.04s.69.04.79.04c0,.85-.04,2.1,0,3.16.1,2.46.27,4.84,1.44,7.02.43-.62.84-1.12,1.23-1.52.03-.04.05-.07.08-.11-1.11-1.55-1.46-3.88-1.54-5.72-.04-.91-.01-1.96.17-2.64.3.01.66.08.87.2.22.12.35.21.27.36-.02.05-.15.1-.15.1Z" style="fill:#fff; stroke-width:0px;"/><path d="M54.6,36.37s0,0-.02,0c-.02,0-.03,0-.05,0h-.03c-.06,0-.12.01-.18.02-.64.04-1.26,0-1.77-.21-.29-.1-.54-.26-.79-.43-.06-.05-.71-.62-.82-.73-.47-.44-1.36-1.09-2.28-1.18-1.04-.1-1.7.28-2.44.57-.07.03-.12.1-.13.17,0,.09.05.16.12.2.03.01.05.02.09.03.74.05,1.44.18,2.1.37.49.15.98.31,1.37.58.51.36.95.82,1.24,1.01.38.24.72.47,1.15.56.46.08.93.05,1.38-.07.02,0,.04-.01.06-.02.12-.03.23-.07.35-.12.16-.06.31-.13.45-.21,0,0,.01,0,.02-.01.09-.05.19-.1.27-.16,0,0,0,0,0,0,.05-.04.09-.11.08-.18,0-.09-.08-.16-.17-.18,0,0,0,0,0,0Z" style="fill:#fff; stroke-width:0px;"/><path d="M51.75,29.52c.05.15.2.3.38.41.55.32.75.79-.08.89-.6.07-1.24-.33-3.47.28-1.31.36-2.86,1.68-3.39,2.29-.17.19-.34.41-.5.64-.52.75-.51,1.76.05,2.47.33.43.71.7.82.78,1.96,1.33,3.8.23,4,.03.16-.16.17-.22.14-.27,0,0,0,0-.01,0,0,0,0,0,0,0,0,0,0,0,0,0,0,0-.62.33-1.49.33-.49,0-1-.09-1.42-.27-.31-.14-1.02-.52-1.44-1.19-.27-.43-.21-1,.11-1.39.33-.4.73-.77,1.1-1.04.84-.62,1.81-.99,2.93-1.01.03,0,.05,0,.08,0,.56,0,1.1.1,1.61.26.26.08.5.19.74.31.72.37,1.34.9,1.82,1.54,0,0,0,0,0,0,0,0,0,0,.01.02.18-.31.39-.78.57-1.44.03-.12.06-.23.09-.36.25-1.1.18-3.65-2.25-3.65-.04,0-.09.02-.13.03-.26.07-.32.21-.27.36Z" style="fill:#fff; stroke-width:0px;"/><path d="M11.86,23.57c.43.5.83.9,1.2,1.3.15.16.29.31.43.48.48.57.82,1.78-.67,2.92-.21.16-.4.3-.63.41-.22.11-.47.2-.78.25,0,0,0,0,0,0,0,0-.01,0-.02,0,1.68,3.92,4.34,5.68,4.34,5.68,0,0,0-.02,0-.03.02.01.03.02.03.02,0,0-.44-1.1-.17-3.34.14-1.17.46-2.34.53-2.94.08-.73-.04-1.4-.5-2.41-.55-1.22-.75-1.56-1.03-2.01-.54-.87-1.56-2.69-1.56-2.69,0,0,.32-.33.84-.58.32-.15.7-.27,1.14-.27,1.19,0,1.62.7,1.88,1-.01.02-.02.05-.03.07-.27.58-.43,2.4-.19,3.69.29,1.59,1.29,2.69,1.83,3.36,0,.01.07.07.07.07.4-.4,1.2-.54,1.21-.54,0,0-.02-.8.38-1.43-2.31-.49-2.67-1.72-1.97-4.28,0-.02.02-.04.03-.06.34-1.15.67-1.43.45-2.54-.18-.44-.82-1.03-1.21-1.3-1.02-.69-2.42-1.12-3.56-.93-.37.06-.73.19-1.07.38-1.02.56-1.82,1.69-1.82,3.34,0,.2.03.39.05.58.07.55.26,1.18.8,1.8Z" style="fill:#fff; stroke-width:0px;"/><path d="M28.06,24.72s.84.09,1.49.34c.79.31,1.09.57,1.09.57,0,0,.08-.08.08-.08,0,0,0,0,0,0,0,0,.55-.62.85-1.26.12-.27.27-.74.27-.78.09-.46.03-.91-.11-1.31-.09-.38-.33-.73-.68-1.05-.2-.18-.45-.35-.72-.5-.4-.19-.83-.27-1.25-.2h0s-.01,0-.02,0c0,0,.05.5-.04,1.46-.15,1.65-.98,2.79-.98,2.79Z" style="fill:#fff; stroke-width:0px;"/><path d="M26.34,24.65h0c.06,0,.13-.02.2-.05.45-.17,1.04-1,1.4-1.99.38-1.06.27-1.98-.17-2.4-.15-.14-.34-.24-.53-.32.24-.21.4-.51.4-.85,0-.53-.35-.95-.82-1.09v-.46h.79v-.63h-.79v-1h-.64v1h-.79v.63h.79v.46c-.47.14-.82.57-.82,1.09,0,.34.15.64.39.85-.02,0-.04.01-.06.02-.13.06-.24.12-.35.21-.47.38-.67,1.29-.38,2.37.3,1.16.92,2.1,1.39,2.16Z" style="fill:#fff; stroke-width:0px;"/><path d="M21.23,24.22c.18.39.45.76.64,1,.02-.01.04-.02.07-.03,1.4-.55,2.8-.56,2.8-.56h0s.02,0,.02,0c0,0-.82-1.14-.98-2.79-.09-.95-.05-1.45-.04-1.46-.42-.07-.85.01-1.25.2,0,0,0,0,0,0,0,0,0,0,0,0-.27.15-.52.32-.72.5-.35.32-.59.67-.68,1.05-.15.4-.2.85-.11,1.31,0,.04.15.52.27.78Z" style="fill:#fff; stroke-width:0px;"/><path d="M26.22,34.79s.06-.01.09-.03c.08-.03.13-.11.12-.2,0-.08-.06-.15-.13-.17-.74-.29-1.41-.67-2.44-.57-.92.09-1.81.74-2.28,1.18-.12.11-.77.68-.82.73-.24.17-.49.34-.79.43-.51.2-1.13.25-1.77.21-.06,0-.12-.01-.18-.02h-.03s-.03,0-.05,0c0,0,0,0-.02,0,0,0,0,0,0,0-.09.02-.16.08-.17.18,0,.07.03.14.08.18,0,0,0,0,0,0,.08.06.18.11.27.16,0,0,.01,0,.02.01.14.08.29.15.45.21.11.04.23.09.35.12.02,0,.04.01.06.02.45.12.92.15,1.38.07.44-.09.77-.32,1.15-.56.29-.19.73-.65,1.24-1.01.39-.28.88-.43,1.37-.58.67-.2,1.37-.32,2.1-.37Z" style="fill:#fff; stroke-width:0px;"/><path d="M18.1,32.78c.03.13.06.24.09.36.18.66.38,1.12.57,1.44,0,0,0,0,.01-.02,0,0,0,0,0,0,.48-.65,1.1-1.18,1.82-1.54.24-.12.49-.22.74-.31.51-.17,1.05-.26,1.61-.26.03,0,.05,0,.08,0,1.12.02,2.09.39,2.93,1.01.37.28.77.65,1.1,1.04.33.39.38.95.11,1.39-.42.67-1.13,1.05-1.44,1.19-.42.19-.92.27-1.42.27-.87,0-1.49-.33-1.49-.33,0,0,0,0,0,0,0,0,0,0,0,0,0,0,0,0-.01,0-.03.04-.02.11.14.27.2.2,2.04,1.3,4-.03.11-.07.48-.35.82-.78.56-.72.57-1.73.05-2.47-.16-.23-.33-.45-.5-.64-.54-.61-2.08-1.93-3.39-2.29-2.23-.61-2.86-.21-3.47-.28-.83-.1-.63-.57-.08-.89.18-.1.33-.26.38-.41.05-.15-.01-.29-.27-.36-.04-.01-.09-.03-.13-.03-2.43,0-2.5,2.55-2.25,3.65Z" style="fill:#fff; stroke-width:0px;"/><path d="M47.63,70.22v.03s.01,0,.02,0c0,0-.01-.02-.02-.03Z" style="fill:#fff; stroke-width:0px;"/><path d="M37.63,45.48c.08.16.4.42.47.91,0,.05,1.22-1.29,1.22-1.29v-1.29l-1.3.55-.39,1.12Z" style="fill:#fff; stroke-width:0px;"/><path d="M29.7,79.34c.59-.16,1.12-.34,1.69-.56.28-.11.56-.23.84-.38.28-.14.56-.31.83-.5.27-.19.52-.42.73-.69.11-.13.19-.28.27-.44.04-.08.08-.17.1-.24l.05-.21h0c.04-.16-.05-.32-.21-.36-.06-.01-.12,0-.17.01-.05.02-.1.05-.13.09-.18.21-.37.35-.57.46-.2.11-.42.18-.65.26-.47.14-1,.21-1.53.28-.53.07-1.1.13-1.62.18-.52.05-1.06.07-1.6.09l-1.68.05c-.58.03-1.19.06-1.89.22-.26.06-.55.14-.84.28-.1.05-.2.1-.3.16-.38.24-.76.62-.95,1.07-.2.45-.22.89-.14,1.27.09.38.24.71.51.99.11.11.27.14.41.08.05-.02.17-.12.17-.12.48-.78,1.52-1.2,1.72-1.25.84-.19,2.03-.25,3.18-.42.58-.09,1.17-.2,1.76-.35Z" style="fill:#fff; stroke-width:0px;"/><path d="M24.44,76.11c-.01.15.11.29.26.3.07,0,.13-.01.18-.05h0s0,0,0,0l.09-.06c.13-.09.27-.16.4-.23.41-.19.83-.26,1.24-.26.56-.02,1.14.05,1.8.17.71.13,1.51.19,2.29.12.39-.03.79-.11,1.2-.21.2-.07.41-.14.62-.25,0,0,0,0,0,0,0,0,0,0,.01,0,.19-.11.46-.25.6-.54.05-.12,0-.25-.11-.3-.02,0-.04-.01-.05-.02,0,0-.79-.15-1.11-.24l-1-.26c-.69-.17-1.34-.31-2.08-.44-.78-.13-1.71-.13-2.58.21-.11.04-.22.09-.32.15-.74.38-1.37,1.06-1.43,1.93Z" style="fill:#fff; stroke-width:0px;"/><path d="M25.57,73.33s.5-.17.72-.25c0,0,0,0,0,0,0,0-2.71-.99-1.17-2.74v-.07s0-.01,0,0c-.26-.03-.52-.01-.76.09-.24.1-.46.26-.63.48-.74.92.27,1.91.3,1.93-.15-.01-.52-.07-.67-.08-.66-.45-1.75-1.56-.18-3.91-.04,0-.08,0-.12,0-.23-.01-.45.03-.66.12-.12.04-.24.09-.35.14-.77.38-1.3,1.1-1.3,1.95,0,.34.09.67.25.96.11.21.26.4.44.57-.12-.01-.61-.04-.73-.08-.72-.82-1.51-2.37.02-4.17-.04,0-.08,0-.12,0-.23-.01-.45.03-.66.12-.14.05-.27.11-.39.18-.85.48-1.26,1.41-1.26,2.17,0,.34.12.91.25,1.21,1,2.46,5.75,1.71,7.03,1.39Z" style="fill:#fff; stroke-width:0px;"/><path d="M49.69,78.06c-.1-.06-.2-.11-.3-.16-.29-.14-.58-.22-.84-.28-.7-.16-1.3-.19-1.89-.22l-1.68-.05c-.54-.02-1.08-.05-1.6-.09-.52-.05-1.09-.11-1.62-.18-.53-.07-1.05-.14-1.53-.28-.23-.07-.45-.15-.65-.26-.21-.11-.4-.26-.57-.46-.04-.04-.08-.07-.13-.09-.05-.02-.11-.03-.17-.01-.15.04-.25.19-.21.35h0s.05.22.05.22c.03.08.07.16.1.24.08.16.16.3.27.44.21.27.46.5.73.69.27.19.55.36.83.5.28.14.56.27.84.38.57.22,1.1.4,1.69.56.59.15,1.18.26,1.76.35,1.15.17,2.35.22,3.18.42.2.05,1.24.47,1.72,1.25,0,0,.12.1.17.12.14.06.3.03.41-.08.27-.28.43-.61.51-.99.08-.38.05-.82-.14-1.27-.19-.45-.57-.84-.95-1.07Z" style="fill:#fff; stroke-width:0px;"/><path d="M40.18,75.63s0,0,.01,0c0,0,0,0,0,0,.21.11.42.18.62.25.41.11.8.19,1.2.21.78.06,1.58,0,2.29-.12.66-.12,1.23-.19,1.8-.17.41,0,.83.08,1.24.26.13.06.27.14.4.23l.09.06s0,0,0,0h.01s.11.06.18.06c.15-.01.27-.14.26-.3-.06-.87-.69-1.55-1.43-1.93-.11-.06-.21-.1-.32-.15-.87-.34-1.8-.34-2.58-.21-.74.13-1.39.27-2.08.44l-1,.26c-.32.09-1.11.24-1.11.24-.02,0-.04,0-.05.02-.12.05-.17.19-.11.3.14.3.4.44.6.54Z" style="fill:#fff; stroke-width:0px;"/><path d="M53.17,68.56c-.12-.07-.25-.13-.39-.18-.21-.09-.43-.13-.66-.12-.04,0-.08,0-.12,0,1.53,1.81.74,3.35.02,4.17-.12.04-.62.07-.73.08.18-.17.33-.36.44-.57.16-.29.25-.61.25-.96,0-.85-.53-1.57-1.3-1.95-.11-.06-.23-.1-.35-.14-.21-.09-.43-.13-.66-.12-.04,0-.08,0-.12,0,1.57,2.35.47,3.46-.18,3.91-.15.02-.52.07-.67.08.03-.02,1.04-1.01.3-1.93-.18-.22-.39-.38-.63-.48-.24-.1-.51-.12-.76-.09,0,0,0,.01-.01,0v.07c1.55,1.75-1.17,2.74-1.16,2.74h0c.22.07.68.24.72.25,1.28.32,6.02,1.07,7.03-1.39.12-.31.25-.87.25-1.21,0-.76-.41-1.69-1.26-2.17Z" style="fill:#fff; stroke-width:0px;"/><path d="M44.33,53.26c-.49-.9-1.18-1.49-2.01-1.62-.45-.07-.91,0-1.35.19,0,0-.09.04-.09.04-.34.15-.67.37-.99.65-1.3,1.14-2.41,3.24-2.87,5.75-.44,2.4-.19,4.62.56,6.09.5.98,1.21,1.63,2.09,1.76.86.13,1.75-.25,2.56-1,1.25-1.16,2.3-3.2,2.74-5.63.45-2.48.17-4.78-.63-6.24ZM38.41,57.54c.5-1.9,1.27-2.93,1.27-2.93.44-.65.94-1.12,1.45-1.38.41-.23.93-.26,1.44-.03.26.12.5.3.67.53,0,0,0,0,0,0,.03.05.06.09.08.14.03.06.07.13.1.2.18.35.3.73.39,1.15.01.05.02.1.03.15.18,1.31.18,1.5.16,2.87,0,.08-.04.6-.05.67-.06.52-.27,1.59-.87,3.04-.18.56-.59,1.08-.58,1.09-.71,1.2-1.81,1.91-2.56,1.83-.57-.07-.88-.39-1.07-.6-.53-.6-.57-.92-.65-1.19-.18-.57-.15-.85-.18-1.15-.14-1.48.03-2.56.18-3.56.02-.13.09-.47.13-.68,0,0,.01-.07.03-.14" style="fill:#fff; stroke-width:0px;"/><path d="M38.51,57.5c.01-.06.02-.11.03-.14" style="fill:#fff; stroke-width:0px;"/><path d="M71.93,46.26c-.07-.22-.22-.39-.41-.49-.18-.1-.41-.13-.63-.07h-.03c-.94.29-1.93.59-2.89.81-.48.12-.97.24-1.45.34-.48.1-.95.18-1.47.25-1.01.14-2.03.25-3.04.34-.65.05-1.32.1-1.97.13.09-.02.18-.05.28-.07.28-.08.56-.16.84-.25.55-.17,1.09-.36,1.62-.55,1.07-.39,2.1-.81,3.13-1.27,1.03-.44,2.11-.94,3.07-1.56.96-.64,1.87-1.3,2.71-2.12.26-.25.33-.66.14-.99-.09-.15-.21-.26-.36-.33-.24-.12-.53-.12-.77.02l-.03.02c-.89.51-1.84,1.04-2.78,1.5-.95.47-1.86.91-2.87,1.26-1.01.35-2.04.68-3.06.97-.51.14-1.02.28-1.53.39l-.34.07c.26-.11.51-.22.75-.34.56-.27,1.09-.56,1.61-.86,1.04-.6,2.04-1.24,3.01-1.91,1-.67,1.99-1.4,2.86-2.24.86-.85,1.66-1.72,2.36-2.76.21-.3.19-.72-.07-1-.08-.09-.17-.15-.27-.19-.29-.14-.65-.1-.9.13l-.03.03c-.8.73-1.66,1.48-2.54,2.14-.88.68-1.74,1.34-2.7,1.89-.18.1-.36.2-.54.31-.8.45-1.61.89-2.42,1.28-.16.08-.32.15-.47.22-.3.14-.59.27-.89.39.05-.04.11-.07.16-.11.35-.25.68-.5,1-.76.18-.14.36-.29.53-.43.96-.81,1.85-1.67,2.7-2.54.01-.01.02-.02.03-.03.91-.92,1.75-1.87,2.47-2.92.71-1.06,1.34-2.13,1.84-3.34.14-.34.03-.75-.28-.97,0,0-.01,0-.02,0,0,0,0,0,0,0-.37-.26-.88-.17-1.13.2l-.02.03c-.65.93-1.37,1.89-2.13,2.76-.23.27-.45.53-.68.79-.54.61-1.09,1.2-1.68,1.73-.3.27-.6.52-.91.78-.55.46-1.1.91-1.67,1.34.09-.11.18-.23.26-.34.47-.64.9-1.29,1.31-1.95.29-.46.56-.92.83-1.38.48-.8.91-1.62,1.29-2.46.17-.38.33-.76.47-1.15.45-1.26.82-2.51,1.01-3.88.05-.37-.16-.75-.53-.88,0,0,0,0,0,0,0,0,0,0-.01,0-.42-.15-.89.07-1.04.49v.04c-.36.97-.77,1.96-1.22,2.92-.07.15-.13.31-.21.46-.51,1.04-1.03,2.06-1.65,3.03-.04.06-.07.12-.11.17-.46.68-.94,1.34-1.44,1.98-1.52,1.7-4.09,3.39-5.47,4.07-.68.33-1.37.78-2.06,1.12-.01,0-.02.01-.03.02-.47.23-.87.59-1.1,1.05-.06.12-.11.24-.15.37-.07.22-.12.46-.12.71,0,.89.48,1.74,1.21,2.12.24.13.51.21.8.22.05,0,.09,0,.13-.01.25-.03.39-.13.39-.13,0,0-.19-.52.1-.76.05-.03.1-.06.16-.08.14-.06.29-.1.45-.1.15,0,.29.03.42.08.39.17.66.55.66,1,0,.56-.42,1.01-.95,1.08-.24.1-.71.11-1.01.11-.62,0-1.22-.06-1.8-.17-.8-.15-1.57-.4-2.28-.73-.87-.4-2.46-1.57-2.43-1.63-1.64-1.52-2.67-3.61-2.76-5.92,0-.11-.02-.21-.02-.32,0-.33.02-.69.06-1.02.07-.57.2-1.13.38-1.67.32-.97.8-1.87,1.43-2.65.06-.08.34-.38.7-.74.02-.02.04-.04.06-.06,0,0,0,0,.01-.01.4-.39.88-.83,1.3-1.1,0,0,0,0,0,0,0,0,0,0,0,0-.03-.02-.07-.06-.12-.1-.05-.05-.11-.11-.14-.14-.75-.07-1.02-.43-1.15-.74,0,0,0-.02-.01-.03,0-.02-.02-.05-.03-.07-.04-.11-.04-.46-.02-.51.06-.28.22-.55.37-.69.07-.08.14-.14.21-.2.23-.18.49-.27.76-.32.07-.01.14-.03.21-.03,0,0,.02,0,.03,0,.7-.07,1.39.23,1.67.95h0s-.44.11-.44.11h0s0,0,0,0c-.14-.31-.38-.44-.66-.42-.09,0-.19.03-.29.07-.07.03-.12.06-.17.1-.45.38-.05,1.35.57,1.42.1.01.2,0,.31-.04,0,0,0,0,.01,0,.27-.11,2.01-.53,3.06-.69.2-.03.38-.05.51-.06,0,0,0,0,.01,0,0,0,0,0,0,0,0,0,0,0,0,0,.18-.29.19-2.22-1.33-2.85-1.2-.5-2.24-.58-3.19-.58-.86,0-1.63.09-2.43.26-3.09.68-4.98,2.47-6.7,6.35h0c-1.17,2.29-1.59,4.49-1.76,5.1,0,0-.06,0-.17,0-.17-.65-.59-2.83-1.74-5.09h0c-1.72-3.88-3.62-5.67-6.71-6.35-.8-.18-1.58-.26-2.44-.26-.94,0-1.99.08-3.19.58-1.52.63-1.51,2.56-1.33,2.85,0,0,0,0,.01,0,.13,0,.31.03.51.06,1.05.16,2.78.58,3.06.69,0,0,0,0,.01,0,.11.04.21.05.31.04.69-.07,1.1-1.24.4-1.52-.1-.04-.2-.06-.29-.07-.28-.02-.52.11-.66.42h0s0,0,0,0c0,0-.43-.08-.45-.1h0c.28-.72.97-1.03,1.67-.95,0,0,.02,0,.03,0,.07,0,.14.02.21.03.37.07.7.22.97.53.14.14.31.41.37.69.01.05.02.39-.02.51,0,.02-.02.05-.03.07,0,0,0,.02-.01.03-.13.3-.39.66-1.15.74-.03.03-.08.09-.14.14-.05.04-.09.09-.12.1.44.29.96.77,1.38,1.18.36.36.64.67.7.74.62.78,1.11,1.69,1.43,2.65.18.54.31,1.1.38,1.67.04.32.06.69.06,1.02,0,.11-.01.22-.02.32,0,.19-.02.38-.04.57-.21.97-.64,2.54-1.44,3.87-.04.06-.08.12-.12.18h.01c-.31.48-.66.92-1.07,1.28.02.07-1.57,1.23-2.43,1.63-.71.33-1.48.58-2.28.73-.58.11-1.18.17-1.8.17-.3,0-.76-.01-1.01-.11-.54-.07-.95-.53-.95-1.08,0-.45.27-.83.66-1,.13-.05.27-.08.42-.08.16,0,.31.04.45.1.05.02.11.05.16.08.3.23.1.76.1.76,0,0,.14.11.39.13.04,0,.08.01.13.01.29,0,.56-.09.8-.22.73-.38,1.21-1.23,1.21-2.12,0-.25-.05-.48-.12-.71-.04-.13-.09-.25-.15-.37-.24-.46-.64-.82-1.1-1.05-.01,0-.02-.01-.03-.02-.69-.34-1.38-.79-2.06-1.12-1.39-.67-3.95-2.37-5.47-4.07-.49-.64-.98-1.3-1.44-1.98-.04-.06-.07-.12-.11-.17-.62-.96-1.14-1.99-1.65-3.03-.07-.15-.14-.31-.21-.46-.45-.96-.86-1.96-1.2-2.92v-.04c-.16-.42-.63-.64-1.05-.49,0,0,0,0-.01,0,0,0,0,0,0,0-.37.13-.59.5-.53.88.19,1.37.56,2.62,1.01,3.88.14.39.3.77.47,1.15.38.84.81,1.66,1.29,2.46.27.46.55.92.83,1.38.41.66.84,1.31,1.31,1.95.08.11.17.23.26.34-.57-.42-1.12-.87-1.67-1.34-.3-.26-.61-.51-.91-.78-.6-.53-1.15-1.12-1.68-1.73-.23-.26-.46-.52-.68-.79-.76-.88-1.48-1.84-2.13-2.76l-.02-.03c-.26-.37-.77-.46-1.13-.2,0,0,0,0,0,0,0,0-.01,0-.02,0-.32.22-.42.63-.28.97.5,1.21,1.13,2.28,1.84,3.34.72,1.05,1.57,2,2.47,2.92.01.01.02.02.03.03.85.87,1.74,1.73,2.7,2.54.17.15.35.29.53.43.32.26.65.52,1,.76.05.04.11.07.16.11-.3-.12-.59-.25-.89-.39-.16-.07-.32-.14-.47-.22-.82-.39-1.62-.83-2.42-1.28-.18-.1-.36-.2-.54-.31-.96-.55-1.82-1.21-2.7-1.89-.88-.66-1.74-1.41-2.54-2.14l-.03-.03c-.25-.23-.61-.27-.9-.13-.1.04-.19.11-.27.19-.26.28-.28.7-.07,1,.7,1.03,1.5,1.9,2.36,2.76.87.84,1.86,1.57,2.86,2.24.97.67,1.97,1.31,3.01,1.91.52.3,1.05.59,1.61.86.24.12.5.23.75.34l-.34-.07c-.51-.12-1.02-.25-1.53-.39-1.02-.29-2.05-.62-3.06-.97-1.02-.35-1.92-.79-2.87-1.26-.94-.45-1.89-.98-2.78-1.5l-.03-.02c-.25-.14-.54-.14-.77-.02-.14.07-.27.18-.36.33-.19.33-.12.74.14.99.85.83,1.75,1.49,2.71,2.12.96.62,2.04,1.12,3.07,1.56,1.03.45,2.07.88,3.13,1.27.53.19,1.07.38,1.62.55.27.09.55.17.84.25.1.03.19.05.28.07-.65-.03-1.32-.07-1.97-.13-1.01-.09-2.03-.2-3.04-.34-.52-.07-.99-.15-1.47-.25-.48-.11-.96-.22-1.45-.34-.97-.22-1.95-.52-2.89-.8h-.03c-.22-.08-.44-.04-.63.06-.19.1-.34.27-.41.49-.11.36.05.74.35.93.95.59,1.92,1.02,2.94,1.41,1,.38,2.12.63,3.15.84,1.04.23,2.08.43,3.13.61.94.16,1.86.29,2.85.39-.6.07-1.2.14-1.81.2-.97.09-1.94.18-2.91.24-.24.02-.48.03-.73.04h-.7s-1.41-.01-1.41-.01c-.94-.01-1.92-.08-2.85-.13h-.03c-.17-.01-.33.03-.46.11-.23.13-.4.38-.41.66-.02.37.21.7.55.82,1,.34,1.98.55,3,.71.51.07,1.02.12,1.54.14.26.01.52.02.78.02h.75c1,.03,2,.04,3,.02.69,0,.84,0,1.54-.03l.09.3c-1.15.36-1.93.59-3.08.92-.9.25-1.75.42-2.64.6-.88.2-1.79.36-2.67.54h-.02c-.06.02-.12.04-.17.06-.35.15-.56.53-.48.92.07.36.38.62.73.65.98.09,1.93.06,2.91,0,.97-.07,1.94-.28,2.86-.45.93-.17,2.29-.5,3.21-.69l.07.23c-.38.22-1.21.66-1.59.87-.38.21-.77.4-1.15.59-.38.19-.76.37-1.14.56h0s0,0-.01,0c-.77.4-1.56.77-2.32,1.19h-.01c-.4.22-.55.72-.33,1.12.17.32.53.48.88.41.9-.17,1.76-.43,2.63-.71.86-.29,1.7-.69,2.52-1.05.22-.1,1.07-.46,1.29-.56l.15.68c-.13.09-.61.43-.62.43l-.95.82c-.62.56-1.21,1.16-1.76,1.81-.3.35-.26.87.09,1.16.26.22.63.25.92.1,0,0,0,0,.01,0,0,0,0,0,0,0,.76-.39,1.48-.83,2.16-1.32l.72-.42s.4,2.38.5,3.36c.32,3.06.23,6.57.56,6.98.28.34.82.27,1.32.28-.03-.12-.05-.23-.07-.34,0-.01,0-.02,0-.03-.35-1.64.13-2.85.44-3.34,0,0,0-.02,0-.03,0-.01.03-.11.03-.13-.11-1.94-.37-5.08-.81-7.51-.7-3.88-1.88-10.09-2.21-11.85-.02-.1.02-.2.08-.27.07-.07.18-.1.29-.07,1.19.3,3.15.48,4.41.56.94.06,3.19.06,5.51-.66-.98,2.32-1.54,4.98-1.54,7.81,0,5.54,2.15,10.44,5.43,13.38-.39.06-.68.12-.76.14-.84.3-1.51.72-1.88.94,0,0-.02.01-.02.02-.02.01-.05.02-.07.03-.13.07-.14.22-.11.36.09.4.31.9.53,1.2.05.07.1.13.18.13,3.06.15,5.32.39,7.12,1.53,0,0,.02.01.02.02.05.03.09.07.14.1.85.67,1.2,2.06.5,3.05-.24.25-.49.48-.74.71-.84.72-1.75,1.34-2.71,1.8-.96.47-1.96.76-2.97.9-1.02.19-2.04.32-3.37.64h0s-.08.03-.12.06c-.11.07-.17.21-.14.34.01.06.04.11.08.15.98,1.06,2.42,1.47,3.82,1.4,1.05-.08,2.08-.38,3.01-.83.31-.15.62-.31.91-.49,1.16-.72,2.16-1.65,2.91-2.75.02-.02.03-.05.05-.07,0,.01,0,.02,0,.04-.17.6-.74,2.16-1.19,2.68-.46.53-.88,1.03-1.36,1.43-.36.3-.74.55-1.17.76-.14.07-.28.13-.43.19-.61.25-1.31.42-2.14.6h0s-.08.03-.11.05c-.11.07-.17.19-.14.32.02.08.06.14.12.18.73.52,1.66.77,2.62.71.49-.03.97-.15,1.43-.34.45-.18.88-.44,1.26-.75.13-.1.23-.22.34-.33.21.42.44.84.6,1.26.21.5.38,1,.66,1.51.06.11.2.16.25.16,0,0,.22-.04.28-.16.28-.5.47-1,.68-1.51.16-.42.39-.84.6-1.26.11.11.21.23.34.33.37.31.8.57,1.26.75.46.19.94.31,1.43.34.96.06,1.89-.19,2.62-.71.06-.04.1-.11.12-.18.03-.13-.03-.25-.14-.32-.03-.02-.07-.04-.11-.05h0c-.83-.18-1.53-.34-2.14-.6-.15-.06-.29-.13-.43-.19-.42-.21-.8-.46-1.17-.76-.48-.4-.91-.9-1.36-1.43-.45-.52-1.02-2.08-1.19-2.68,0-.01,0-.02,0-.04.01.02.03.05.05.07.75,1.1,1.75,2.04,2.91,2.75.29.18.59.34.91.49.94.45,1.96.75,3.01.83,1.39.08,2.84-.34,3.82-1.4.04-.04.06-.09.08-.15.03-.14-.03-.27-.14-.34-.03-.03-.07-.04-.12-.05h0c-1.33-.32-2.35-.45-3.37-.64-1.01-.15-2.01-.44-2.97-.9-.96-.46-1.87-1.08-2.71-1.8-.25-.23-.5-.47-.74-.71-.7-.99-.35-2.38.5-3.05.05-.03.09-.07.14-.1,0,0,.02-.01.02-.02,1.81-1.14,4.06-1.38,7.12-1.53.08,0,.13-.07.18-.13.22-.3.44-.8.53-1.2.03-.14.02-.29-.11-.36-.02-.01-.05-.02-.07-.03,0,0-.02-.01-.03-.02-.37-.22-1.04-.64-1.88-.94-.08-.03-.36-.08-.72-.14,3.28-2.94,5.44-7.84,5.44-13.39,0-2.83-.57-5.48-1.55-7.8,2.31.7,4.54.71,5.48.65,1.26-.08,3.22-.26,4.41-.56.11-.03.21,0,.29.07.07.07.1.16.08.27-.33,1.76-1.51,7.97-2.21,11.85-.44,2.43-.7,5.57-.81,7.51,0,.02.03.12.03.13,0,0,0,.02,0,.03.3.49.79,1.7.44,3.34,0,.01,0,.02,0,.03-.02.11-.04.22-.07.34.49-.02,1.04.06,1.32-.28.33-.41.24-3.93.56-6.98.1-.98.5-3.35.5-3.36l.72.42c.68.49,1.4.93,2.16,1.32,0,0,0,0,0,0,0,0,0,0,.01,0,.29.15.65.12.92-.1.35-.3.39-.82.09-1.16-.55-.65-1.13-1.25-1.76-1.81l-.95-.82s-.48-.34-.62-.43l.15-.68c.22.1,1.07.46,1.29.56.82.36,1.65.76,2.52,1.05.87.28,1.72.53,2.63.71.34.07.7-.09.87-.41.22-.4.07-.9-.33-1.11h-.01c-.76-.42-1.56-.8-2.32-1.2,0,0,0,0-.01,0h0c-.38-.19-.76-.37-1.14-.56-.38-.19-.77-.38-1.15-.59-.38-.21-1.21-.65-1.59-.87l.07-.23c.92.19,2.28.52,3.21.69.92.17,1.9.39,2.86.45.97.06,1.92.09,2.91,0,.35-.03.65-.29.73-.65.08-.39-.13-.77-.48-.92-.05-.02-.11-.04-.17-.06h-.02c-.88-.19-1.79-.35-2.67-.54-.89-.18-1.74-.35-2.64-.6-1.15-.32-1.94-.56-3.08-.92l.09-.3c.7.02.85.03,1.54.03,1,.01,2,0,3-.01h.75c.26-.01.52-.02.78-.03.52-.02,1.04-.07,1.54-.14,1.02-.17,2.01-.37,3-.71.34-.12.57-.44.55-.82-.02-.29-.18-.53-.41-.66-.14-.08-.3-.12-.46-.12h-.03c-.94.05-1.91.12-2.85.13l-1.41.03h-.7c-.25-.02-.49-.03-.73-.05-.97-.06-1.94-.14-2.91-.24-.6-.06-1.21-.13-1.81-.2.99-.1,1.91-.24,2.85-.39,1.05-.18,2.09-.38,3.13-.61,1.03-.21,2.15-.46,3.15-.84,1.02-.4,1.99-.83,2.94-1.41.31-.19.46-.57.35-.93ZM36.32,71.24s-.03,0-.04,0c-3.64-.02-6.87-2.47-8.82-6.19.91-1.53,2.78-4.87,2.78-4.87.18.68,1.22,5.22,1.22,5.22,0,0-1.32.57-.65.98.67.41,2.09.11,2.09.11,0,0,.36.33.75.6.46.35.99.61,1.55.76.21.08.36.14.36.14,0,0-.13.63.07.95.08.13.15.24.41.24.07,0,.15-.02.22-.04.22-.08.43-.26.55-.38.31-.31.41-.54.64-.84,0-.01,0-.04.02-.06.54-.15,1.11-.34,1.66-1.02-1.32-.52-2.45-1.72-2.88-3.72-.16-.73-.25-1.52-.26-2.36,0-.88.06-1.8.24-2.74,0-.03.01-.06.02-.1.62-3.27,2.66-5.77,3.24-5.98-.18-.42-.11-1.49-1.53-2.07-.31-.13-1.26-.18-1.35-.62.45-.31.79-.88.87-1.57.11-.92-.28-1.75-.9-2.05.15-.34.51-.81.51-.81l-.71-.76-.14.08-.78.42s.23.67.23,1.03c-.61.2-1.07.69-1.17,1.54-.05.42.18,1.07.66,1.55.26.26.31.48.15.64-.35.35-1.08.26-1.45.81-.23.34-.52,1.13-.52,1.13-.18.36-1.21,2.83-1.71,3.7-.13.22-.64,1.03-.64,1.03,0,0-.22.15-.48.36-.2.16-.43.36-.56.53-.39.5-.23,1.39,0,1.77l-3,5.49c-.12-.25-.17-.39-.17-.39-.84-2.06-1.33-4.42-1.33-6.93,0-7.69,4.5-13.99,10.16-14.44h1.31c.62.05,1.23.18,1.82.36.31.1.61.21.91.35,4.3,1.91,7.41,7.34,7.41,13.73,0,7.98-4.85,14.47-10.81,14.47ZM35.21,55.57s-2.1.8-3.11,1.2l2.05-3.55s.1.5.93.85c-.03.13.13,1.5.13,1.5Z" style="fill:#fff; stroke-width:0px;"/><path d="M33.22,5.03s.07-.02.11-.02c.15.25.41.43.73.43h0c.31,0,.58-.17.73-.43h1.14v.75c-.73.17-1.28.84-1.28,1.62,0,.42.17.8.42,1.09-.27.1-.52.25-.74.44-.66.63-.82,1.97-.26,3.54.39,1.09.97,1.99,1.52,2.52.25.27.5.39.73.39h.06c.23,0,.48-.12.73-.39.55-.53,1.13-1.43,1.52-2.52.56-1.58.4-2.91-.26-3.55-.22-.2-.48-.35-.76-.45.24-.29.41-.67.41-1.08,0-.78-.54-1.45-1.27-1.62v-.75h1.15c.13.26.41.43.72.43h.01c.32,0,.6-.18.74-.46.03.01.06.02.09.02.22,0,.4-.18.4-.4s-.18-.4-.4-.4c-.03,0-.06.01-.09.02-.14-.27-.42-.46-.74-.46h-.01c-.31,0-.59.17-.72.43h-1.15v-1.51c.26-.15.43-.41.43-.73s-.19-.61-.46-.75c.02-.04.02-.08.02-.13,0-.22-.18-.4-.4-.4s-.4.18-.4.4c0,.05.01.08.03.13-.28.14-.47.42-.47.75s.17.58.43.73v1.51h-1.14c-.15-.26-.42-.43-.73-.43h0c-.33,0-.62.2-.75.48-.03,0-.06-.01-.09-.01-.22,0-.4.17-.4.4s.18.4.4.4Z" style="fill:#fff; stroke-width:0px;"/><path d="M43.87,57.9c-.17-.17-.38-.23-.55-.23.1-.21.17-.51.09-.72-.02-.06-.05-.12-.1-.17h0c-.24-.31-.44-.38-.54-.4-.07-.01-.39-.05-.55.17l-.03-.27c-.13.11-.25.46-.28.55-.07.21-.21.73-.21.73.4-.63.61-.71.95-.79-.3.21-.53.68-.67,1.11l.79-.53-.18-.12c.1-.15.19-.22.37-.12.06.03.1.1.11.19,0,.07,0,.24-.15.45h0l-1.43,1.23c-.11.09-.14.18-.13.47,0,.1.1.2.29.04l1.53-1.37c.07-.06.19,0,.22.04.09.13.04.4-.19.74l-.13-.29c-.13.17-.37.61-.57.83,0,0,.4.03.71-.2.09-.07.16-.13.22-.19-.25.65-.83,1.11-.84,1.12,0,0,.4-.04.61-.15.22-.12.43-.25.6-.46l-.29-.09c.15-.2.38-.45.47-.85.07-.32.03-.56-.12-.71Z" style="fill:#fff; stroke-width:0px;"/><path d="M40.61,57.98l.19-.96-.26.2s-.19-.26-.25-.33c-.25-.28-.5-.4-.75-.35-.28.06-.35.25-.7.16.01.26-.25.37-.4.58-.15.21-.15.48,0,.82.04.08.21.37.21.37l-.33.1,1.03.3c0-.11-.12-.8-.12-.8l-.24.18c-.09-.12-.13-.2-.2-.3-.1-.17-.16-.3-.11-.41.04-.1.21-.11.29-.12l1.16,1.82c.06.11.17.11.2.04.11-.22.12-.46.06-.52l-1.03-1.58c.04-.08.16-.18.24-.19.14-.03.21.01.35.14.09.08.19.22.23.28l-.27.11c.2.14.55.38.67.47Z" style="fill:#fff; stroke-width:0px;"/><path d="M40.81,54.7c.15.23.43.51.55.62,0,0-.18.22-.21.27-.11.19.36.26.4.26.06,0,.5.1.46-.11,0-.05-.13-.31-.13-.31.16-.06.54-.25.76-.41.03-.02.1-.07.12-.1.43-.53.28-.87.28-.87l-.8.5c-.07.05-.11,0-.11,0,.07-.04.17-.28.19-.34.03-.1,0-.17-.12-.19-.11-.02-.16.01-.16.01.03-.04.02-.04.03-.06,0,0,0-.02.01-.02,0-.01,0-.03.01-.04,0,0,0,0,0,0,0,0,0-.01,0-.02,0-.11-.09-.2-.2-.2-.09,0-.16.06-.19.14,0,0,0,0,0,.02,0,.04-.01.02,0,.14,0,0-.04-.05-.14-.06-.12-.02-.15.03-.16.13,0,.06-.02.26.04.39,0,0-.06.03-.11-.04l-.58-.75s-.26.27-.03.92c.01.04.06.11.08.14Z" style="fill:#fff; stroke-width:0px;"/><path d="M39.97,60.92c.09-.09.14-.2.17-.32l.04-.23c.03-.13-.12-.2-.22-.11l-1.34,1.28-.04.03s-.07-.02-.1-.03c-.06,0-.12,0-.17.02-.06.02-.12.05-.17.1-.2.18-.24.52-.09.75.07.11.18.18.31.2.1.01.2-.01.28-.07.02-.02.04-.03.07-.05.12-.11.22-.32.17-.51l1.1-1.06ZM38.42,62.31c-.12,0-.21-.09-.21-.21s.09-.21.21-.21.21.09.21.21-.09.21-.21.21Z" style="fill:#fff; stroke-width:0px;"/><path d="M42.49,62.02s-.1,0-.15.01l-.99-1.56c-.07-.11-.19-.09-.22.04l-.04.13c-.03.16-.06.17.11.48l.8,1.22c-.08.18-.07.41.05.57.08.11.19.19.32.2.13.02.25-.03.36-.12,0,0,0,0,0,0,.2-.19.24-.53.08-.76-.08-.12-.19-.19-.32-.2ZM42.43,62.76c-.12,0-.21-.09-.21-.21s.09-.21.21-.21.21.09.21.21-.09.21-.21.21Z" style="fill:#fff; stroke-width:0px;"/><path d="M40.3,63.66c.29-1.58,1.06-5.68,1.06-5.72.06-.33.24-1.22.28-1.72.03-.19-.28-.31-.35-.04-.09.37-.31,1.31-.38,1.67h0s-.83,4.14-1.15,5.73c-.02.09-.07.18-.12.25-.04.05-.07.12-.08.19-.04.23.1.44.3.47.2.03.4-.12.44-.35,0-.05,0-.1,0-.15-.02-.11-.03-.22-.01-.33Z" style="fill:#fff; stroke-width:0px;"/><rect x="41.24" y="61.77" width="1.52" height=".33" rx=".07" ry=".07" transform="translate(-28.75 37.56) rotate(-36.85)" style="fill:#fff; stroke-width:0px;"/></svg>