<svg width="575" height="327" viewBox="0 0 575 327" fill="none" xmlns="http://www.w3.org/2000/svg">
<path fill-rule="evenodd" clip-rule="evenodd" d="M570.251 261.537H574.163L568.838 271.065V276.836H565.234V271.065L559.739 261.537H563.819L567.037 268.161L570.251 261.537ZM555.917 268.529V276.836H553.245V275.198H553.201C552.182 276.747 550.702 277.275 548.596 277.275C542.015 277.275 541.103 272.05 541.103 269.143C541.103 266.04 542.318 261.101 549.117 261.101C553.526 261.101 555.392 263.899 555.783 266.499L552.026 266.498C551.983 265.886 551.615 264.074 549.094 264.074C544.927 264.074 544.969 268.379 544.969 269.252C544.969 270.171 545.053 274.301 548.986 274.301C550.55 274.301 552.286 273.428 552.485 271.305H549.442V268.529H555.917V268.529ZM532.741 269.186C532.741 267.808 532.587 264.073 528.917 264.073C526.941 264.073 525.115 265.145 525.115 269.186C525.115 273.186 526.941 274.301 528.917 274.301C532.566 274.301 532.741 270.475 532.741 269.186ZM521.23 269.186C521.23 265.624 522.922 261.101 528.917 261.101C534.152 261.101 536.606 264.557 536.606 269.186C536.606 273.82 534.152 277.275 528.917 277.275C522.924 277.275 521.23 272.751 521.23 269.186ZM517.406 276.836H506.74V261.537H510.324V273.863H517.406V276.836ZM497.662 269.186C497.662 267.808 497.51 264.073 493.836 264.073C491.86 264.073 490.035 265.145 490.035 269.186C490.038 273.186 491.86 274.301 493.836 274.301C497.488 274.301 497.658 270.475 497.662 269.186ZM486.152 269.186C486.152 265.624 487.841 261.101 493.836 261.101C499.075 261.101 501.527 264.557 501.527 269.186C501.531 273.82 499.073 277.275 493.836 277.275C487.843 277.275 486.15 272.751 486.152 269.186ZM471.226 267.265V276.836H467.642V261.537H471.272L477.266 271.044H477.329V261.537H480.915V276.836H477.266L471.272 267.265H471.226ZM452.592 276.836H449.006V261.537H452.592V267.285H458.107V261.537H461.693V276.836H458.107V270.256H452.592V276.836ZM444.165 271.44C443.923 273.733 442.642 277.275 437.255 277.275C433.37 277.275 429.806 275.481 429.806 269.469C429.807 261.408 435.671 261.101 437.125 261.101C442.514 261.101 443.882 264.487 443.988 266.739H440.471C440.144 264.182 438.127 264.073 437.3 264.073C436.497 264.073 433.671 264.226 433.671 269.339C433.673 272.224 434.976 274.301 437.409 274.301C439.755 274.301 440.445 272.572 440.601 271.44H444.165ZM424.549 267.616V270.434H417.121V273.863H425.767V276.836H413.538V261.537H425.549V264.511H417.121V267.616H424.549ZM396.226 264.511V261.537H409.001V264.511H404.415V276.836H400.83V264.511H396.226ZM376.547 268.004V270.978H370.247V276.836H366.665V261.537H377.699V264.511H370.247V268.004H376.547ZM357.587 269.186C357.587 267.808 357.435 264.073 353.763 264.073C351.787 264.073 349.962 265.145 349.962 269.186C349.962 273.186 351.787 274.301 353.763 274.301C357.411 274.301 357.587 270.475 357.587 269.186ZM346.075 269.186C346.075 265.624 347.768 261.101 353.763 261.101C358.996 261.101 361.452 264.557 361.452 269.186C361.454 273.82 358.996 277.275 353.763 277.275C347.768 277.275 346.075 272.751 346.075 269.186ZM570.251 240.86H574.163L568.838 250.387V256.155H565.234V250.387L559.739 240.86H563.819L567.037 247.48L570.251 240.86ZM544.25 243.828V240.86H557.023V243.828H552.444V256.155H548.858V243.828H544.25ZM536.063 240.86H539.645V256.155H536.063V240.86ZM521.598 251.192C521.574 252.133 522.076 253.62 524.638 253.62C525.986 253.62 527.352 253.379 527.352 252.05C527.352 250.387 525.333 250.08 523.487 249.664C520.747 249.054 518.468 248.353 518.468 244.945C518.47 242.476 520.122 240.422 524.703 240.422C528.919 240.422 530.436 242.826 530.48 245.054L527.092 245.052C527.008 244.225 526.419 243.393 524.487 243.393C522.706 243.393 522.141 244.09 522.141 244.856C522.141 246.189 523.833 246.476 525.138 246.739C528.33 247.347 531.025 248.157 531.025 251.502C531.025 252.747 530.676 256.595 524.593 256.595C518.988 256.595 517.992 253.228 517.968 251.193H521.598V251.192ZM504.221 247.719H507.5C509.521 247.719 509.801 246.539 509.801 245.798C509.802 244.29 508.913 243.828 507.37 243.828H504.221V247.719ZM500.635 240.86H508.413C509.956 240.86 513.584 241.252 513.584 245.206C513.584 247.787 511.932 248.682 510.933 249.03V249.076C513.042 249.686 513.086 251.676 513.103 252.788C513.149 254.735 513.147 255.371 513.692 256.155H510.043C509.392 255.194 509.63 254.602 509.435 252.266C509.283 250.43 507.39 250.517 506.979 250.517H504.221V256.155H500.635V240.86ZM494.664 246.933V249.753H487.235V253.183H495.879V256.155H483.653V240.86H495.664V243.828H487.235V246.933H494.664ZM475.66 240.86H479.634L474.464 256.155H470.663L465.517 240.86H469.622L472.704 251.785L475.66 240.86ZM457.806 240.86H461.39V256.155H457.806V240.86ZM442.165 246.581V256.155H438.582V240.86H442.209L448.206 250.363H448.27V240.86H451.854V256.155H448.206L442.209 246.581H442.165ZM423.246 240.86V249.775C423.246 252.309 424.008 253.62 426.244 253.62C428.442 253.62 429.241 252.394 429.241 249.777V240.86H432.829V250.363C432.829 251.915 432.608 256.594 426.244 256.594C419.837 256.594 419.664 252.026 419.664 250.365V240.86H423.246ZM398.554 246.933V249.753H391.123V253.183H399.769V256.155H387.539V240.86H399.552V243.828H391.123V246.933H398.554ZM370.228 243.828V240.86H383.001V243.828H378.419V256.155H374.835V243.828H370.228ZM363.406 250.691L361.454 244.856L359.456 250.691H363.406ZM363.257 240.86L368.968 256.155H365.168L364.192 253.291H358.673L357.718 256.155H353.936L359.629 240.86H363.257ZM339.886 243.828V240.86H352.657V243.828H348.073V256.155H344.491V243.828H339.886ZM326.768 251.192C326.745 252.133 327.243 253.62 329.807 253.62C331.155 253.62 332.521 253.379 332.521 252.05C332.521 250.387 330.504 250.08 328.656 249.664C325.916 249.054 323.639 248.353 323.639 244.945C323.639 242.476 325.29 240.422 329.87 240.422C334.086 240.422 335.605 242.826 335.648 245.054L332.263 245.052C332.175 244.225 331.588 243.393 329.651 243.393C327.872 243.393 327.308 244.09 327.308 244.856C327.309 246.189 329 246.476 330.307 246.739C333.501 247.347 336.193 248.157 336.193 251.502C336.193 252.747 335.843 256.595 329.762 256.595C324.161 256.595 323.159 253.228 323.137 251.193H326.768V251.192ZM291.533 256.155H287.648L283.632 240.86H287.406L289.863 252.024L292.514 240.86H295.771L298.422 252.024L300.876 240.86H304.655L300.636 256.155H296.749L294.143 244.856L291.533 256.155ZM276.377 248.507C276.377 247.129 276.224 243.393 272.553 243.393C270.577 243.393 268.753 244.466 268.753 248.507C268.753 252.507 270.577 253.62 272.553 253.62C276.2 253.62 276.375 249.796 276.377 248.507ZM264.866 248.507C264.866 244.945 266.558 240.422 272.553 240.422C277.79 240.422 280.241 243.874 280.241 248.507C280.241 253.139 277.79 256.594 272.553 256.594C266.558 256.594 264.866 252.07 264.866 248.507ZM260.739 250.757C260.497 253.052 259.217 256.594 253.831 256.594C249.944 256.594 246.38 254.8 246.38 248.791C246.381 240.727 252.245 240.422 253.699 240.422C259.088 240.422 260.455 243.808 260.564 246.06H257.043C256.72 243.499 254.699 243.393 253.874 243.393C253.071 243.393 250.245 243.545 250.245 248.66C250.245 251.545 251.548 253.62 253.98 253.62C256.33 253.62 257.023 251.893 257.177 250.757H260.739ZM232.632 251.192C232.611 252.133 233.109 253.62 235.671 253.62C237.017 253.62 238.387 253.379 238.387 252.05C238.387 250.387 236.366 250.08 234.52 249.664C231.784 249.054 229.501 248.353 229.501 244.945C229.503 242.476 231.154 240.422 235.738 240.422C239.95 240.422 241.471 242.826 241.516 245.054L238.127 245.052C238.039 244.225 237.452 243.393 235.522 243.393C233.739 243.393 233.172 244.09 233.172 244.856C233.172 246.189 234.868 246.476 236.173 246.739C239.363 247.347 242.058 248.157 242.058 251.502C242.058 252.747 241.711 256.595 235.628 256.595C230.025 256.595 229.025 253.228 229.005 251.193H232.632V251.192ZM220.79 248.507C220.79 247.129 220.641 243.393 216.97 243.393C214.992 243.393 213.17 244.466 213.17 248.507C213.17 252.507 214.992 253.62 216.97 253.62C220.619 253.62 220.79 249.796 220.79 248.507ZM209.281 248.507C209.281 244.945 210.976 240.422 216.97 240.422C222.207 240.422 224.66 243.874 224.66 248.507C224.66 253.139 222.205 256.594 216.97 256.594C210.976 256.594 209.279 252.07 209.281 248.507ZM190.364 245.23H190.295V256.155H186.713V240.86H191.751L195.38 251.371L199.008 240.86H204.048V256.155H200.464V245.23H200.397L196.599 256.155H194.164L190.364 245.23Z" fill="#1B1918"/>
<path fill-rule="evenodd" clip-rule="evenodd" d="M214.04 164.97C201.301 164.97 196.892 166.927 192.933 170.832C188.973 174.739 186.994 179.204 186.994 184.226C186.996 189.251 188.799 193.701 192.424 197.58C196.046 201.459 200.604 203.397 206.107 203.397C210.261 203.397 212.337 204.875 212.337 207.825C212.337 208.92 211.932 209.863 211.118 210.655C210.304 211.445 209.367 211.843 208.306 211.843H186.713V226.763H209.645C214.721 226.763 219.131 225.015 222.868 221.508C226.83 217.781 228.811 213.14 228.811 207.58C228.812 201.966 226.848 197.32 222.916 193.649C219.267 190.202 214.919 188.481 209.866 188.481C205.598 188.478 203.468 186.978 203.468 183.974C203.468 182.863 203.9 181.905 204.768 181.101C205.632 180.293 206.596 179.893 207.662 179.893H253.472V226.763H269.946V179.893H299.266L315.677 164.97H214.04ZM574.108 164.97V227.857L531.443 189.485V226.763H514.969V177.663L529.102 164.97L557.63 190.879V164.97H574.108ZM504.839 163.424V226.801H488.363V178.305L504.839 163.424ZM468.09 164.951H490.677L459.826 194.348L473.452 206.793V228.171L447.757 205.235L440.309 212.005V226.801H423.834V178.453L440.309 163.562V190.273L468.09 164.951ZM414.503 164.97V227.857L371.836 189.485V226.763H355.366V177.663L369.499 164.97L398.029 190.879V164.97H414.503ZM345.141 164.97V226.763H328.665V218.318H299.234L315.768 203.257H328.665V186.93L282.841 228.134V206.358L328.665 164.97H345.141Z" fill="#950A2A"/>
<path fill-rule="evenodd" clip-rule="evenodd" d="M316.625 53.9696C318.786 54.1913 320.987 54.5181 323.193 54.8943L356.029 49.9735L357.029 43.2192C335.635 32.9778 309.914 31.4471 286.901 33.0451C278.716 33.6114 270.547 34.6055 262.444 35.9599H231.231C231.231 35.9599 226.156 42.9539 216.945 54.128V35.9599L174.433 0.946533L150.345 55.9695V57.615L112.513 47.0013L89.4647 57.615V117.715C63.8668 138.279 40.8994 162.257 23.5932 189.783C10.8903 209.967 1.64192 232.147 0.920898 256.192L2.02026 267.949C2.02026 267.949 2.98098 277.166 9.79094 289.107C16.6009 301.049 23.8071 306.473 23.8071 306.473C36.6942 317.558 54.9572 323.528 71.4117 325.54C93.1866 328.197 115.397 327.045 136.998 323.16C178.547 315.708 218.629 299.906 255.373 278.851L264.787 272.85H233.336L222.495 278.851C217.212 281.594 211.888 284.231 206.514 286.76C165.014 306.267 118.646 319.922 72.3743 316.981C56.7696 315.991 39.9189 311.574 26.8535 302.51C26.8535 302.51 16.4187 297.221 11.231 288.15C6.04521 279.079 6.24133 267.394 6.24133 267.394L6.3245 256.39C10.4129 222.902 30.3121 193.659 52.7624 169.429C64.0926 157.208 76.3913 145.796 89.4627 135.25L89.4643 276.034H113.014L112.513 61.9378L150.344 72.502V276.034H174.235L174.433 24.2611L216.945 58.7457V160.516H231.436L231.23 49.0588H265.553V160.516H272.904V54.3378C287.396 52.728 302.014 52.4705 316.625 53.9696ZM396.479 95.8165C396.098 92.8343 395.332 89.9433 394.445 87.0859L371.041 76.7376L367.593 80.4306C367.959 80.9137 368.326 81.4068 368.7 81.8899C368.775 82.0265 368.851 82.1671 368.93 82.3097C372.473 91.0601 375.825 98.3887 375.152 108.224C374.108 123.707 369.271 138.41 362.239 152.152L385.23 152.368C393.696 134.622 398.965 115.186 396.479 95.8165Z" fill="#101075"/>
<path fill-rule="evenodd" clip-rule="evenodd" d="M363.423 25.6792L374.896 50.7422L410.564 45.6986L381.557 63.136L391.489 82.4209L370.142 72.9993L347.368 97.3652L356.419 66.6984L298.554 63.2648L359.364 52.9421L363.423 25.6792Z" fill="#950A2A"/>
</svg>
