<svg width="42" height="71" viewBox="0 0 42 71" fill="none" xmlns="http://www.w3.org/2000/svg">
<path fill-rule="evenodd" clip-rule="evenodd" d="M17.3959 17.8117C17.3926 17.3226 17.3863 17.2517 17.4307 17.2098C17.4751 17.1681 17.5703 17.1552 17.6592 17.1841C17.7478 17.2131 17.8304 17.2839 17.8828 17.5399C17.9352 17.7958 17.9575 18.2368 17.9584 18.6026C17.9592 18.9683 17.9389 19.2585 17.9317 19.4547C17.9246 19.6509 17.9307 19.7533 17.8441 19.8573C17.7574 19.9613 17.5783 20.0673 17.4887 20.1108C17.399 20.1541 17.399 20.1348 17.399 19.6714C17.399 19.2081 17.399 18.3007 17.3959 17.8117ZM20.6499 38.3258L19.0566 40.7067H20.6499V38.3258ZM36.6553 37.2219C36.5783 37.4918 36.4368 37.7434 36.0175 38.5044C35.3608 39.6959 34.7089 40.89 34.0619 42.0869C33.2232 43.6386 32.2426 45.472 31.4629 46.9278C30.6831 48.3838 30.1046 49.4622 29.4784 50.5705C28.8411 51.6995 28.1793 52.8141 27.4935 53.9135C26.8083 55.0101 26.1114 56.0646 25.3848 57.071C24.6582 58.0777 23.9021 59.0362 23.3174 59.7133C22.7324 60.3904 22.3191 60.7855 21.9587 61.1187C21.5983 61.4516 21.2912 61.7221 20.8541 61.8575C20.4171 61.9926 19.8499 61.9926 19.3479 61.7675C18.8458 61.5425 18.4086 61.0921 17.8416 60.4655C17.2745 59.8391 16.5774 59.0362 15.9987 58.2272C15.4199 57.4185 14.959 56.6037 14.4688 55.765C14.0564 55.0596 13.6227 54.3354 13.0738 53.1897L12.933 53.1781C11.6643 53.0741 10.9701 53.0173 10.0722 52.9393C9.17435 52.8614 8.07267 52.7626 7.5101 52.7191C6.94753 52.6756 6.92385 52.6877 6.78805 52.2083C6.65202 51.7291 6.40398 50.7586 6.23353 50.2191C6.06308 49.6799 5.97022 49.5721 6.21825 49.5063C6.46628 49.4404 7.05533 49.4165 7.72208 49.3386C8.38883 49.2608 9.13305 49.1289 10.096 48.9193C10.4503 48.8422 10.8036 48.7602 11.1557 48.6734C10.9311 48.1106 10.7196 47.5749 10.5349 47.1075C9.92638 45.5678 9.60742 44.7649 9.2944 43.8243C8.98127 42.8837 8.6742 41.8052 8.46152 40.9665C8.24895 40.1278 8.13088 39.5287 8.02448 38.8156C7.9182 38.1026 7.82358 37.276 7.816 36.4143C7.8083 35.5528 7.8874 34.6565 8.07045 33.8417C8.25362 33.0269 8.5405 32.2935 8.82587 31.7832C9.11123 31.2727 9.39485 30.9851 9.53672 30.8412C9.67847 30.6977 9.67847 30.6977 9.67847 28.1274C9.67847 25.5571 9.67847 20.4165 9.69037 17.8462C9.70215 15.276 9.72583 15.276 9.78487 15.2042C9.8439 15.1322 9.9384 14.9885 10.1274 14.7967C10.3165 14.605 10.6 14.3652 10.8067 14.1676C11.0135 13.97 11.1434 13.8141 11.2321 13.6704C11.3205 13.5265 11.368 13.3946 11.3384 13.2389C11.3089 13.0832 11.2026 12.9036 11.2557 12.7117C11.3089 12.5199 11.5216 12.3164 11.9586 12.0107C12.3959 11.7052 13.0573 11.2978 13.7602 10.9023C14.4632 10.507 15.2074 10.1236 16.0216 9.76015C16.8357 9.39663 17.7198 9.05323 18.4463 8.80165C18.9712 8.61921 19.5022 8.45537 20.0384 8.31045C20.3346 8.23057 20.3583 8.23057 20.37 9.75234C20.3821 11.274 20.3821 14.3175 20.376 15.8392C20.37 17.3609 20.3583 17.3609 20.5128 17.2651C20.6675 17.1691 20.9885 16.9775 21.3369 16.7858C21.6852 16.5941 22.0615 16.4024 22.5211 16.1748C22.9808 15.9471 23.5244 15.6836 24.2981 15.3779C25.0717 15.0724 26.0761 14.7249 27.0919 14.4312C28.1081 14.1379 29.1358 13.8981 30.0159 13.7124C30.8962 13.5266 31.6285 13.3949 32.1223 13.3485C32.6158 13.3021 32.8711 13.341 33.0069 13.3471C33.1427 13.353 33.1596 13.3259 33.1678 16.9851C33.1762 20.6443 33.1762 27.9898 33.1585 31.6742C33.1407 35.3588 33.1051 35.3827 33.2115 35.3948C33.3179 35.4068 33.5661 35.4068 33.8851 35.4009C34.2038 35.3948 34.5939 35.3829 34.9424 35.3829C35.2909 35.3829 35.5982 35.3948 35.876 35.4726C36.1535 35.5504 36.4012 35.6943 36.543 35.8562C36.6847 36.0177 36.7204 36.1976 36.7323 36.4312C36.7437 36.6649 36.7322 36.9523 36.6553 37.2219ZM11.4405 47.1356C11.6095 47.572 11.7905 48.0168 11.976 48.4578C12.0509 48.4367 12.1253 48.4153 12.2 48.3935C12.012 47.9484 11.8305 47.5005 11.6554 47.0499C10.9534 45.2381 10.5341 43.7626 10.1647 42.4064C9.80073 41.0697 9.55667 40.1229 9.3861 39.2396C9.22777 38.4194 9.12042 37.5899 9.06468 36.756C9.01487 36.0087 9.01848 35.4291 9.07612 34.877C9.13643 34.3018 9.25602 33.7629 9.42203 33.3184C9.56577 32.9338 9.755 32.5836 10.0355 32.1824C10.2635 31.8562 10.5007 31.5676 10.6148 31.4288C10.7597 31.2523 10.7597 31.2523 10.7597 28.6457C10.7597 26.1487 10.7597 20.9529 10.7657 18.3889C10.771 16.0665 10.7818 15.8683 10.8409 15.7957L10.8959 15.7272C10.9807 15.621 11.1087 15.4603 11.2381 15.3337C11.3343 15.2395 11.437 15.1586 11.5456 15.0732C11.6185 15.0158 11.6949 14.9556 11.7758 14.8868C11.9831 14.7103 12.2365 14.4643 12.3553 14.1257C12.4316 13.9086 12.4491 13.659 12.4632 13.4584C12.4701 13.3606 12.4766 13.2681 12.4886 13.2008C12.5159 13.0472 12.5639 13.02 12.7223 12.9297L12.7404 12.9194C12.9868 12.7771 13.2304 12.6299 13.4711 12.4779L13.5914 12.4019C13.8556 12.235 14.155 12.0456 14.5558 11.8297C14.9667 11.608 15.5369 11.3306 16.1612 11.0483C16.7664 10.7749 17.2267 10.5859 17.7001 10.4168C18.3077 10.1998 18.9228 10.0213 19.0399 9.98771C19.0642 9.98072 19.093 9.97244 19.1131 9.96901C19.1523 10.0724 19.1505 10.5045 19.1477 11.1953L19.147 11.3842C19.1441 12.1718 19.1426 13.3499 19.1411 14.5274C19.1396 15.7059 19.1382 16.8838 19.1351 17.669L19.1341 17.9392C19.1296 18.9892 19.1291 19.1505 19.216 19.2391C19.2444 19.2682 19.2822 19.2841 19.3225 19.2841C19.3786 19.2841 19.4248 19.2544 19.4764 19.2211C19.5556 19.1703 19.6716 19.0971 19.8091 19.0104C20.0122 18.8827 20.2148 18.7543 20.4169 18.6251L20.4847 18.5818C20.8549 18.3446 21.2378 18.0993 22.0057 17.6956C22.5083 17.4315 23.8466 16.75 25.4166 16.1296C26.7214 15.6141 28.1778 15.1437 29.3128 14.8713C30.4029 14.6095 31.14 14.546 31.537 14.5118L31.9263 14.4781C31.9353 14.7283 31.9353 15.5643 31.9353 17.903C31.9353 21.3626 31.9353 28.5613 31.9181 32.9586C31.9148 33.9067 31.9087 34.8548 31.8999 35.8028C31.9776 35.7904 32.0543 35.7787 32.131 35.7672C32.139 34.9679 32.1444 34.0442 32.1488 32.9595C32.1661 28.5618 32.1661 21.3627 32.1661 17.9024C32.1661 16.1602 32.1661 15.2856 32.1627 14.8299C32.1585 14.2917 32.158 14.2355 32.0226 14.2355L31.5165 14.2785C31.1146 14.313 30.3663 14.3774 29.2595 14.6433C28.1146 14.9181 26.6467 15.392 25.3326 15.9111C23.809 16.5132 22.5276 17.1572 21.8993 17.4874C21.1227 17.8958 20.7181 18.155 20.3612 18.3836L20.2935 18.4269C20.0918 18.5558 19.8896 18.6839 19.687 18.8113C19.5626 18.8898 19.4556 18.9571 19.3755 19.0085C19.361 18.8531 19.3625 18.4963 19.3648 17.9401L19.3659 17.6698C19.3688 16.8844 19.3703 15.7063 19.3718 14.5276C19.3734 13.3501 19.3748 12.1723 19.3778 11.3849L19.3785 11.196C19.3828 10.1278 19.3837 9.90546 19.2713 9.79104C19.2524 9.77199 19.2299 9.75701 19.2052 9.747C19.1805 9.73699 19.154 9.73217 19.1274 9.73282C19.0785 9.73282 19.0292 9.74702 18.9769 9.76193C18.8586 9.79589 18.2374 9.97623 17.6231 10.1955C17.1435 10.367 16.678 10.558 16.0669 10.8341C15.438 11.1185 14.8628 11.3986 14.4472 11.6226C14.0392 11.8425 13.7362 12.034 13.469 12.203L13.3491 12.2786C13.1113 12.429 12.8705 12.5745 12.6269 12.7151L12.6091 12.7251C12.4409 12.821 12.3079 12.8966 12.2612 13.1588C12.247 13.2387 12.24 13.3372 12.2326 13.4415C12.2189 13.6376 12.2034 13.8598 12.1377 14.0469C12.0375 14.3323 11.8122 14.5497 11.6273 14.7071C11.5487 14.7739 11.4747 14.8322 11.4039 14.8879C11.2902 14.9774 11.1829 15.0618 11.0777 15.1648C10.938 15.3015 10.8045 15.4689 10.7162 15.5797L10.6615 15.6478C10.5475 15.7876 10.5406 15.7959 10.5347 18.388C10.5287 20.9524 10.5287 26.1483 10.5287 28.6453C10.5287 31.0965 10.5262 31.1703 10.4374 31.2784C10.3215 31.4194 10.0803 31.7128 9.84705 32.0465C9.55468 32.4645 9.35705 32.831 9.20608 33.235C9.03318 33.6979 8.90882 34.2569 8.8464 34.8518C8.78725 35.418 8.78352 36.0099 8.83427 36.7713C8.8907 37.615 8.99934 38.4543 9.15953 39.2842C9.3315 40.1748 9.57673 41.1261 9.94213 42.4683C10.313 43.8308 10.7343 45.3133 11.4405 47.1356ZM29.5173 22.8657C29.5173 23.1452 29.5173 23.1891 29.2486 23.3684C28.9799 23.5475 28.4429 23.8623 28.1644 24.056C27.8862 24.2497 27.867 24.3225 27.8575 24.4324C27.8478 24.5424 27.8478 24.6893 27.9124 24.7803C27.9774 24.8714 28.107 24.9066 28.5115 24.7253C28.916 24.544 29.5952 24.1462 29.9347 23.9142C30.2745 23.6825 30.2745 23.6165 30.2745 22.2264C30.2745 20.8365 30.2745 18.1223 30.2706 16.7509C30.2668 15.3796 30.2592 15.3508 30.1145 15.3749C29.9694 15.399 29.6873 15.4757 29.5517 15.5141C29.4161 15.5524 29.4276 15.5525 29.4332 16.3699C29.4389 17.1875 29.4389 18.8226 29.4341 19.6449C29.4291 20.4673 29.4198 20.477 29.3681 20.5093C29.2895 20.5587 29.2075 20.6019 29.1225 20.6387C29.0225 20.6805 28.917 20.7092 28.851 20.71C28.7849 20.711 28.7581 20.684 28.7451 19.8617C28.7319 19.0393 28.7319 17.4215 28.7144 16.6079C28.6969 15.7942 28.662 15.7847 28.5498 15.8058C28.4375 15.8267 28.248 15.8785 28.1442 15.9282C28.0405 15.9777 28.0228 16.0257 28.0153 16.0857C28.0079 16.1457 28.0103 16.2176 28.0115 17.0263C28.0131 17.8351 28.0131 19.3809 28.0131 20.2976C28.0131 21.2142 28.0131 21.5015 28.0676 21.6774C28.1223 21.8531 28.2319 21.9171 28.4286 21.8664C28.6248 21.8152 28.9084 21.6493 29.0741 21.5419C29.24 21.4346 29.288 21.3858 29.3263 21.3697C29.3646 21.3536 29.393 21.3703 29.4234 21.4069C29.4537 21.4432 29.4856 21.4994 29.5015 21.7852C29.5173 22.071 29.5173 22.5862 29.5173 22.8657ZM26.5415 19.23C26.5432 17.9565 26.5466 17.944 26.6909 17.854C26.8354 17.7642 27.1211 17.597 27.2669 17.5134C27.4127 17.4296 27.4187 17.4296 27.4214 17.217C27.4245 17.0044 27.4245 16.5789 27.4245 16.3723C27.4245 16.1655 27.4245 16.1775 26.9533 16.4146C26.4823 16.6518 25.5402 17.1142 25.0609 17.3492C24.5817 17.5844 24.5655 17.5924 24.578 17.803C24.5905 18.0137 24.6319 18.427 24.6671 18.6232C24.7022 18.8193 24.7314 18.7981 24.8576 18.7219C24.9839 18.6457 25.2073 18.5149 25.3936 18.429C25.58 18.3429 25.7292 18.3017 25.8053 18.3177C25.8816 18.3335 25.8849 18.4063 25.8921 19.6965C25.8996 20.9867 25.911 23.4943 25.9149 24.7409C25.9185 25.9878 25.9149 25.9737 26.0234 25.902C26.132 25.8304 26.3528 25.7011 26.4577 25.6363C26.5624 25.5715 26.5513 25.5715 26.5454 24.3046C26.54 23.0376 26.54 20.5034 26.5415 19.23ZM22.5166 40.9434V40.7067H20.8833V37.4434L18.7533 40.7067H17.9475L13.5413 45.5891L13.5333 45.6508V47.57H13.7666V45.7426L18.0485 40.9434H22.5166ZM20.1833 42.3633V43.4284H20.7666V42.3633H20.1833ZM18.5499 42.3633V43.4284H19.2499V42.3633H18.5499ZM17.1499 43.0734V44.1384H17.4999V43.0734H17.1499ZM15.9833 44.4934V45.3217H16.3333V44.4934H15.9833ZM14.6999 45.9134V46.7417H15.0499V45.9134H14.6999ZM11.5321 23.1292C11.5283 24.6081 11.5209 24.6349 11.8766 24.4511C12.2322 24.2676 12.9512 23.8732 13.3238 23.6509C13.6964 23.4287 13.7225 23.3784 13.6814 23.2601C13.6405 23.1419 13.5323 22.9555 13.446 22.8724C13.3598 22.7892 13.2953 22.8092 13.1323 22.8911C12.9692 22.9728 12.7075 23.1163 12.5661 23.1939C12.4247 23.2715 12.4037 23.2829 12.3933 22.139C12.3828 20.9951 12.3828 18.6956 12.3784 17.53C12.3738 16.3645 12.365 16.3327 12.4995 16.2406C12.6341 16.1484 12.9121 15.996 13.0573 15.9098C13.2023 15.8237 13.2144 15.8039 13.2204 15.6605C13.2263 15.5171 13.2263 15.25 13.2046 15.1138C13.1828 14.9773 13.139 14.972 13.0955 14.9663C12.5719 15.2535 12.0483 15.5407 11.7885 15.6775C11.5284 15.8142 11.5322 15.801 11.5342 17.2599C11.5359 18.7189 11.5359 21.6502 11.5321 23.1292ZM15.4486 15.4287C15.4459 16.3531 15.4459 18.1693 15.4459 19.3946C15.4459 20.6201 15.4459 21.2548 15.4429 21.5753C15.4399 21.8958 15.434 21.902 15.5825 21.815C15.7309 21.7279 16.0337 21.5476 16.186 21.4573C16.3386 21.367 16.3408 21.3666 16.3418 21.3611C16.3429 21.3558 16.3428 21.3455 16.3411 19.9999C16.3393 18.6542 16.3356 15.9734 16.3232 14.626C16.311 13.2788 16.2897 13.2649 16.1641 13.2641C16.0383 13.2634 15.8079 13.2757 15.4052 13.4983C15.0021 13.7209 14.4266 14.1539 14.1421 14.3763C13.8577 14.5988 13.8642 14.6106 13.8676 16.0072C13.8709 17.4039 13.8709 20.1852 13.8735 21.5782C13.876 22.9712 13.8813 22.9759 14.0283 22.8912C14.1751 22.8065 14.4639 22.6326 14.6135 22.5254C14.763 22.418 14.7737 22.3773 14.7788 21.13C14.784 19.8827 14.784 17.4289 14.784 16.1866C14.784 14.9442 14.784 14.9135 14.8971 14.824C15.0103 14.7346 15.2366 14.5868 15.3467 14.5293C15.4569 14.4715 15.4513 14.5043 15.4486 15.4287ZM17.2443 15.9652C17.2482 15.7712 17.2783 15.6201 17.4433 15.5003C17.6084 15.3804 17.9081 15.2915 18.0978 15.0752C18.2874 14.8585 18.3668 14.5143 18.1479 14.5048C17.929 14.4953 17.4121 14.8204 17.1441 15.0353C16.876 15.2502 16.8566 15.3545 16.8471 16.311C16.8374 17.2673 16.8661 18.8536 16.8787 19.9926C16.8901 21.0189 16.8236 20.9983 17.0282 20.9108C17.0506 20.9012 17.0765 20.8908 17.1059 20.8809C17.4043 20.7807 17.7956 20.5622 18.0488 20.399C18.3021 20.2358 18.4533 20.109 18.498 19.5242C18.5424 18.9396 18.4803 17.897 18.3827 17.3243C18.285 16.7515 18.1519 16.6486 18.0051 16.6044C17.8583 16.5602 17.6979 16.5748 17.5759 16.5895C17.4537 16.604 17.3696 16.6183 17.3165 16.5069C17.2631 16.3958 17.2406 16.1591 17.2443 15.9652ZM18.5413 22.1485C18.7017 22.0527 19.0286 21.8613 19.1872 21.757C19.3458 21.6529 19.336 21.6356 19.3311 21.4798C19.3262 21.3238 19.3262 21.029 19.3154 20.8397C19.3045 20.6505 19.2828 20.5667 18.9998 20.6841C18.717 20.8014 18.173 21.12 17.8983 21.2818C17.6236 21.4434 17.6182 21.4483 17.6155 22.7929C17.613 24.1374 17.613 26.8216 17.613 28.1667C17.613 29.5116 17.613 29.5177 17.7411 29.4457C17.8693 29.3735 18.1256 29.2235 18.2556 29.1516C18.3854 29.0797 18.3891 29.086 18.3909 27.9479C18.3926 26.8096 18.3927 24.5269 18.3896 23.3856C18.3866 22.2442 18.3806 22.2442 18.5413 22.1485ZM22.9719 22.7236C23.1933 22.0945 23.2523 22.1005 23.2817 22.1336C23.3113 22.1666 23.311 22.2264 23.311 23.0622C23.311 23.898 23.3102 25.5096 23.3159 26.3189C23.3216 27.1281 23.3314 27.1348 23.4734 27.0584C23.6151 26.982 23.8842 26.8228 24.0203 26.7502C24.1563 26.678 24.1498 26.6931 24.1498 25.2206V19.3146C24.1498 17.8408 24.1563 17.8527 24.094 17.8586C24.0321 17.8647 23.9143 17.8647 23.802 17.9156C23.6897 17.9667 23.5892 18.0683 23.3058 19.0025C23.0222 19.9365 22.5556 21.7027 22.3136 22.5833C22.0711 23.4641 22.0535 23.4594 22.0181 23.4569C21.9825 23.4544 21.9293 23.4544 21.6872 22.8554C21.445 22.2563 21.0139 21.0581 20.7925 20.4589C20.5708 19.8598 20.559 19.8598 20.4438 19.9227C20.3286 19.9856 20.1101 20.1114 19.98 20.1983C19.8501 20.2853 19.8088 20.3332 19.7881 21.768C19.7675 23.2029 19.7675 26.025 19.7675 27.4419C19.7675 28.8588 19.7675 28.8707 19.8876 28.8063C20.0079 28.7419 20.2484 28.6011 20.3664 28.5295C20.4844 28.4576 20.4799 28.4552 20.4778 27.519C20.4755 26.5828 20.4755 24.7132 20.495 23.7669C20.5144 22.8207 20.5533 22.798 20.5898 22.769C20.6264 22.7401 20.661 22.7053 20.8927 23.2229C21.1244 23.7405 21.5535 24.8109 21.7679 25.3458C21.9824 25.8809 21.9824 25.8809 22.1744 25.2488C22.3667 24.6169 22.7505 23.3526 22.9719 22.7236ZM26.7013 53.131C26.5953 53.1726 26.4824 53.2095 26.3606 53.2436C26.1674 53.5581 25.9721 53.8712 25.7747 54.183C24.919 55.5342 24.1777 56.6089 23.4419 57.5654C22.8373 58.3511 22.2803 59.0004 21.7861 59.4953C21.3547 59.9273 20.9923 60.2208 20.6784 60.3921C20.3798 60.5549 20.1738 60.5877 19.9202 60.5146C19.6926 60.4485 19.3889 60.2869 18.7145 59.5584C18.1186 58.9148 17.1638 57.752 16.374 56.6056C15.723 55.6612 15.1846 54.7306 14.4687 53.3034L14.1988 53.2815C14.9523 54.7926 15.5077 55.7574 16.1847 56.7399C16.9811 57.8959 17.9445 59.0689 18.5462 59.7188C19.2194 60.446 19.5569 60.6528 19.8568 60.7399C19.955 60.7692 20.0567 60.7842 20.159 60.7847C20.3552 60.7847 20.5551 60.7255 20.7879 60.5984C21.1215 60.4164 21.5011 60.11 21.9484 59.662C22.4496 59.1602 23.0135 58.5033 23.624 57.7095C24.3642 56.7474 25.1094 55.6671 25.9692 54.3098C26.2165 53.9189 26.4605 53.526 26.7013 53.131ZM31.0478 45.8638C31.0447 45.7799 30.9916 45.7799 30.8499 45.9506C30.7081 46.1214 30.4778 46.4629 30.082 47.0589C29.6861 47.6551 29.1252 48.5058 28.6552 49.135C28.1859 49.7639 27.8075 50.1715 27.4209 50.513C27.034 50.8547 26.6382 51.1302 26.2423 51.3189C25.8465 51.5076 25.451 51.6094 24.7597 51.6993C24.0687 51.7892 23.0822 51.8671 22.0103 51.906C20.9381 51.9448 19.7803 51.9448 17.5209 51.9181C15.2614 51.891 11.9005 51.8371 10.1283 51.7892C8.35617 51.7413 8.17323 51.6993 8.06975 51.6544C7.9665 51.6094 7.94282 51.5615 7.91925 51.3398C7.89545 51.1181 7.87188 50.7228 7.8601 50.5249C7.84832 50.3274 7.84832 50.3274 8.08748 50.3034C8.32677 50.2794 8.80522 50.2316 9.35448 50.1505C9.90387 50.0697 10.5242 49.9559 11.2211 49.809C11.9182 49.6623 12.6919 49.4825 13.5218 49.228C14.3517 48.9734 15.2379 48.6438 15.9437 48.3681C16.6495 48.0925 17.1752 47.8707 17.7338 47.5648C18.2927 47.2587 18.8842 46.8682 19.4068 46.4759C19.9296 46.0835 20.3836 45.6891 20.7937 45.3031C21.2037 44.9171 21.57 44.5397 21.9924 44.0634C22.4146 43.5872 22.8932 43.0118 23.3863 42.4068C23.8795 41.8017 24.3876 41.1666 24.9044 40.6184C25.4214 40.0702 25.9469 39.6089 26.6677 39.1685C27.3884 38.7283 28.3037 38.3088 28.9979 38.0842C29.6921 37.8596 30.1646 37.8295 30.5779 37.8086C30.9915 37.7876 31.3458 37.7755 31.6648 37.8412C31.9837 37.9074 32.2672 38.0511 32.4446 38.2637C32.6217 38.4766 32.6927 38.7581 32.5098 39.2947C32.3264 39.8315 31.8896 40.6235 31.5145 41.2625C31.1397 41.9017 30.827 42.3881 30.4757 42.8996C30.1243 43.4111 29.7343 43.9475 29.3676 44.4588C29.0012 44.9698 28.6585 45.4559 28.2627 45.9354C27.8668 46.4151 27.418 46.8884 26.975 47.3467C26.5318 47.8049 26.0948 48.2483 25.7049 48.6078C25.315 48.9673 24.9725 49.2429 24.6535 49.4856C24.3344 49.7283 24.0391 49.9379 23.7792 50.0996C23.5192 50.2614 23.2949 50.3752 23.1826 50.4711C23.0704 50.567 23.0704 50.6449 23.2683 50.6898C23.4661 50.7348 23.8619 50.7467 24.2016 50.7318C24.5412 50.7167 24.8248 50.6749 25.2648 50.5162C25.7047 50.3574 26.3015 50.0816 26.7207 49.8301C27.1404 49.5785 27.3825 49.3508 27.6985 49.0301C28.0145 48.7097 28.4042 48.2963 28.7676 47.826C29.131 47.3556 29.4676 46.8283 29.7896 46.283C30.1114 45.7381 30.4185 45.1748 30.7256 44.5728C31.033 43.9706 31.3402 43.3294 31.6945 42.5656C32.0488 41.8017 32.4505 40.915 32.734 40.2409C33.0178 39.5669 33.1832 39.1056 33.4429 38.5095C33.7029 37.9133 34.0573 37.1824 34.2316 36.778C34.4059 36.3736 34.3997 36.2956 33.9301 36.2807C33.4607 36.2656 32.5276 36.3134 31.789 36.4199C31.0505 36.5261 30.5073 36.6907 29.8903 36.9035C29.2735 37.1161 28.5835 37.3769 27.8924 37.7142C27.2012 38.0512 26.5093 38.4646 26.0214 38.7852C25.5336 39.1058 25.2501 39.3334 24.9493 39.5849C24.6486 39.8366 24.3306 40.1122 24.0146 40.4239C23.6985 40.7352 23.3846 41.0827 23.0976 41.4243C22.8106 41.7659 22.5507 42.1014 22.2435 42.5058C21.9363 42.9103 21.582 43.3834 21.1479 43.8747C20.6837 44.3986 20.1833 44.8881 19.6504 45.3397C19.1011 45.804 18.5163 46.2234 17.8665 46.6129C17.2168 47.0023 16.502 47.3618 15.799 47.6822C15.0961 48.0028 14.405 48.2844 13.5988 48.5479C12.7924 48.8115 11.871 49.0571 11.1769 49.2309C10.4829 49.4047 10.0162 49.5064 9.47558 49.5964C8.93518 49.6862 8.32093 49.764 7.8601 49.803C7.39938 49.842 7.09208 49.842 6.93563 49.8659C6.77907 49.8899 6.77312 49.9378 6.84405 50.3422C6.91487 50.7466 7.06268 51.5074 7.13642 51.888C7.21038 52.2683 7.21038 52.2683 8.01958 52.3342C8.82902 52.4003 10.4473 52.532 11.8149 52.6219C13.1823 52.7118 14.2987 52.7596 15.2526 52.8135C16.2066 52.8674 16.998 52.9274 18.0495 52.996C19.1008 53.0645 20.4122 53.1416 21.4578 53.1548C22.5036 53.1678 23.2837 53.1167 23.9467 53.019C24.6099 52.9214 25.1556 52.777 25.6311 52.6173C26.1063 52.4574 26.511 52.2819 26.9911 51.9578C27.471 51.6333 28.0263 51.16 28.5401 50.483C29.0539 49.8059 29.5265 48.9253 29.9224 48.1913C30.3182 47.4576 30.6372 46.8703 30.8203 46.4928C31.0034 46.1155 31.0505 45.9477 31.0478 45.8638ZM28.1839 40.4855C28.1742 40.7783 28.1661 41.0711 28.1596 41.364C28.1512 41.7828 28.1551 41.9644 28.1272 42.0918C28.0991 42.219 28.039 42.292 27.9528 42.3331C27.8669 42.3738 27.7546 42.3828 27.6394 42.3662C27.5242 42.3497 27.4061 42.3079 27.3072 42.2329C27.208 42.158 27.1283 42.0502 27.0413 41.9486C26.9542 41.8471 26.8599 41.7513 26.7761 41.7026C26.6923 41.6541 26.6191 41.6523 26.5806 41.7045C26.5422 41.7567 26.5382 41.863 26.5823 41.9912C26.6264 42.1192 26.718 42.2692 26.8361 42.4144C26.9544 42.5595 27.099 42.7004 27.3285 42.8408C27.5582 42.9814 27.8726 43.1214 28.1574 43.1719C28.4422 43.2226 28.6974 43.1836 28.9485 43.0757C29.1996 42.9679 29.4462 42.7912 29.6282 42.6296C29.8101 42.4683 29.9268 42.3222 30.0058 42.2118C30.0848 42.1014 30.1261 42.0263 30.1471 41.9431C30.1681 41.86 30.169 41.7686 30.1152 41.7335C30.0617 41.6982 29.9541 41.7193 29.8415 41.7994C29.7289 41.8796 29.6116 42.0189 29.4849 42.1201C29.3582 42.2211 29.2224 42.2841 29.1057 42.3199C28.989 42.3558 28.8917 42.3649 28.8059 42.3559C28.7205 42.3469 28.6464 42.3199 28.6022 42.2692C28.5579 42.2182 28.543 42.1433 28.5283 41.7223C28.5171 41.4062 28.5061 40.895 28.4972 40.4875C28.6227 40.4875 28.7416 40.4866 28.8351 40.4845C29.0966 40.4784 29.1646 40.4635 29.2119 40.4322C29.259 40.4008 29.2857 40.3528 29.3005 40.3049C29.3151 40.2569 29.3183 40.209 29.3211 40.1836C29.3242 40.1582 29.327 40.1551 29.0036 40.1538C28.8719 40.1531 28.6858 40.1526 28.4899 40.1525L28.4893 40.1278C28.4875 40.0333 28.4847 39.9387 28.4808 39.8443C28.5252 39.8202 28.5623 39.7844 28.5882 39.7406C28.6142 39.6969 28.628 39.6469 28.6283 39.5959C28.6283 39.439 28.501 39.3112 28.3451 39.3112C28.189 39.3112 28.0619 39.439 28.0619 39.5959C28.0622 39.6467 28.0759 39.6966 28.1017 39.7402C28.1275 39.7838 28.1643 39.8196 28.2084 39.8438C28.2065 39.8776 28.2049 39.9165 28.2029 39.9623C28.2006 40.0172 28.1981 40.0818 28.1956 40.1523C28.0086 40.1523 27.8323 40.1525 27.7056 40.1528C27.3807 40.1538 27.3807 40.1551 27.3807 40.1806C27.3807 40.206 27.3807 40.2555 27.3948 40.303C27.4088 40.3504 27.4369 40.3962 27.4841 40.4261C27.5314 40.4561 27.5981 40.4704 27.8585 40.4789C27.9488 40.4819 28.063 40.484 28.1839 40.4855ZM35.7394 36.5191C35.6521 36.5061 35.5194 36.6054 35.3975 36.7205C35.2758 36.8359 35.1649 36.9666 34.9505 37.2988C34.7363 37.631 34.419 38.1643 34.1304 38.7322C33.8418 39.3001 33.5817 39.9023 33.239 40.7067C32.8964 41.5111 32.4713 42.5177 32.1309 43.2897C31.7904 44.0619 31.5348 44.5995 31.4433 44.8887C31.3518 45.1777 31.4242 45.2181 31.599 44.9493C31.774 44.6806 32.0518 44.1023 32.3705 43.4809C32.6895 42.8592 33.05 42.1941 33.4073 41.5202C33.7648 40.8462 34.1192 40.1629 34.447 39.5732C34.7748 38.9829 35.0762 38.4856 35.3154 38.0361C35.5544 37.5869 35.7319 37.1856 35.7998 36.9219C35.8677 36.6583 35.8264 36.5324 35.7394 36.5191Z" fill="#455273"/>
</svg>
