<svg id="Layer_1" data-name="Layer 1" xmlns="http://www.w3.org/2000/svg" viewBox="0 0 434.12 58.62">
	<defs>
		<style>.cls-1{fill:#FFFFFF;}.cls-2{fill:#FFFFFF;}</style>
	</defs>
	<rect class="cls-1" y="0.38" width="2" height="57.75"/>
	<path class="cls-2" d="M22.3,27.34V7.51H15.07V.4H37.64V7.51H30.45V27.34Z"/>
	<path class="cls-2" d="M56.1,27.34l-1-3.15H45.44l-1,3.15H35.22L45.16.4H55.41l9.94,26.94ZM50.29,8.4l-2.67,8.68H53Z"/>
	<path class="cls-2" d="M66.81,27.34V.4H75V20.23H85.18v7.11Z"/>
	<path class="cls-2" d="M88.46,27.34V.4h8.16V20.23h10.21v7.11Z"/>
	<path class="cls-2" d="M110.11,27.34V.4h8.16V27.34Z"/>
	<path class="cls-2" d="M140.72,27.34l-9.93-13.65V27.34h-8.16V.4H131l9.37,12.76V.4h8.16V27.34Z"/>
	<path class="cls-2" d="M171,27.34l-9.94-13.65V27.34h-8.16V.4h8.4l9.37,12.76V.4h8.16V27.34Z"/>
	<path class="cls-2"
		  d="M193.52,16.27V.4h8.27V16c0,2.59,1.7,4.65,5.05,4.65s5-2.06,5-4.65V.4h8.28V16.23c0,6.71-4.2,11.59-13.29,11.59S193.52,22.94,193.52,16.27Z"/>
	<path class="cls-2" d="M242.59,27.34l-9.94-13.65V27.34H224.5V.4h8.4l9.37,12.76V.4h8.15V27.34Z"/>
	<path class="cls-2" d="M254.79,27.34V.4H263V27.34Z"/>
	<path class="cls-2" d="M274.34,27.34,264.4.4h9.25l5.82,18.14L285.28.4h9.25L284.6,27.34Z"/>
	<path class="cls-2" d="M296,27.34V.4h20.43V7.51H304.15v2.67h12v7.1h-12v2.95h12.27v7.11Z"/>
	<path class="cls-2"
		  d="M334.88,27.34l-3.71-8.48h-2.95v8.48h-8.16V.4h14.38c6.3,0,9.69,4.2,9.69,9.25a8.68,8.68,0,0,1-4.84,8.16l4.88,9.53Zm1-17.73c0-1.45-1.29-2.1-2.66-2.1h-5v4.24h5C334.56,11.75,335.85,11.11,335.85,9.61Z"/>
	<path class="cls-2"
		  d="M345.39,23.54l4.24-6.05A12.59,12.59,0,0,0,358.31,21c1.54,0,3-.4,3-1.45,0-2.59-15,0-15-10.59,0-4.56,3.79-8.92,11.18-8.92a17.73,17.73,0,0,1,11.43,3.76l-4.36,5.77a13.57,13.57,0,0,0-7.91-2.66c-1.62,0-2.06.52-2.06,1.21,0,2.54,15,.36,15,10.37,0,5.94-4.4,9.37-11.63,9.37C352.17,27.82,348.26,26.13,345.39,23.54Z"/>
	<path class="cls-2" d="M372.21,27.34V.4h8.16V27.34Z"/>
	<path class="cls-2" d="M390.5,27.34V7.51h-7.22V.4h22.57V7.51h-7.19V27.34Z"/>
	<path class="cls-2" d="M416,27.34V16.64L405.85.4H415l5,9.09L425,.4h9.16l-10,16.24v10.7Z"/>
	<path class="cls-2"
		  d="M13.25,44.69c0-8.28,6.42-13.94,14.74-13.94s14.74,5.66,14.74,13.94S36.31,58.62,28,58.62,13.25,53,13.25,44.69Zm21.21,0c0-3.76-2.55-6.75-6.47-6.75s-6.46,3-6.46,6.75,2.55,6.74,6.46,6.74S34.46,48.44,34.46,44.69Z"/>
	<path class="cls-2" d="M45.65,58.13V31.2H66.08v7.11H53.8V41h12v7.11h-12V58.13Z"/>
	<path class="cls-2" d="M85.63,58.13V38.31H78.4V31.2H101v7.11H93.79V58.13Z"/>
	<path class="cls-2" d="M103.89,58.13V31.2h20.43v7.11H112.05V41h12v7.11h-12v3h12.27v7.1Z"/>
	<path class="cls-2"
		  d="M126.51,44.69c0-8.32,6.38-13.94,14.82-13.94,7.07,0,10.62,4.12,12.24,7.84l-7,3.27a5.72,5.72,0,0,0-5.21-3.92,6.44,6.44,0,0,0-6.54,6.75,6.44,6.44,0,0,0,6.54,6.74,5.72,5.72,0,0,0,5.21-3.92l7,3.23a12.72,12.72,0,0,1-12.24,7.88C132.89,58.62,126.51,53,126.51,44.69Z"/>
	<path class="cls-2" d="M173.93,58.13V47.84h-9.66V58.13h-8.15V31.2h8.15v9.53h9.66V31.2h8.15V58.13Z"/>
	<path class="cls-2" d="M204.54,58.13l-9.93-13.65V58.13h-8.16V31.2h8.4L204.22,44V31.2h8.16V58.13Z"/>
	<path class="cls-2"
		  d="M215.29,44.69c0-8.28,6.42-13.94,14.74-13.94s14.74,5.66,14.74,13.94S238.35,58.62,230,58.62,215.29,53,215.29,44.69Zm21.2,0c0-3.76-2.54-6.75-6.46-6.75s-6.46,3-6.46,6.75,2.54,6.74,6.46,6.74S236.49,48.44,236.49,44.69Z"/>
	<path class="cls-2" d="M247.68,58.13V31.2h8.16V51h10.22v7.1Z"/>
	<path class="cls-2"
		  d="M267.07,44.69c0-8.28,6.42-13.94,14.74-13.94s14.74,5.66,14.74,13.94-6.42,13.93-14.74,13.93S267.07,53,267.07,44.69Zm21.2,0c0-3.76-2.54-6.75-6.46-6.75s-6.46,3-6.46,6.75,2.54,6.74,6.46,6.74S288.27,48.44,288.27,44.69Z"/>
	<path class="cls-2"
		  d="M298,44.69c0-8.65,6.66-13.94,14.82-13.94a12.55,12.55,0,0,1,11.83,7l-6.86,3.51a5.63,5.63,0,0,0-5-3.35,6.45,6.45,0,0,0-6.54,6.75,6.44,6.44,0,0,0,6.54,6.74,8,8,0,0,0,4.2-1.21v-1h-5V42.14h13.13v11a16,16,0,0,1-12.32,5.45C304.67,58.62,298,53.29,298,44.69Z"/>
	<path class="cls-2" d="M334.77,58.13V47.43L324.67,31.2h9.17l5,9.08,4.92-9.08h9.17l-10,16.23v10.7Z"/>
</svg>